G04 DipTrace 3.0.0.1*
G04 BottomDimension.gbr*
%MOIN*%
G04 #@! TF.FileFunction,Drawing,Bot*
G04 #@! TF.Part,Single*
%ADD13C,0.001496*%
%ADD78C,0.006176*%
%FSLAX26Y26*%
G04*
G70*
G90*
G75*
G01*
G04 BotDimension*
%LPD*%
X1128084Y1521522D2*
D13*
X213780D1*
X1000787Y1289764D2*
X213780D1*
X233465Y1405643D2*
Y1482152D1*
G36*
Y1521522D2*
X241339Y1482152D1*
X225591D1*
X233465Y1521522D1*
G37*
Y1405643D2*
D13*
Y1329134D1*
G36*
Y1289764D2*
X225591Y1329134D1*
X241339D1*
X233465Y1289764D1*
G37*
X181106Y1445453D2*
D78*
Y1464554D1*
X198306Y1466455D1*
X196405Y1464554D1*
X194459Y1458806D1*
Y1453102D1*
X196405Y1447354D1*
X200207Y1443507D1*
X205955Y1441606D1*
X209758D1*
X215506Y1443507D1*
X219353Y1447354D1*
X221254Y1453102D1*
Y1458806D1*
X219353Y1464554D1*
X217407Y1466455D1*
X213605Y1468401D1*
X217407Y1427353D2*
X219353Y1429255D1*
X221254Y1427353D1*
X219353Y1425408D1*
X217407Y1427353D1*
X181106Y1403506D2*
X183007Y1409210D1*
X186810Y1411155D1*
X190657D1*
X194459Y1409210D1*
X196405Y1405407D1*
X198306Y1397758D1*
X200207Y1392010D1*
X204054Y1388207D1*
X207856Y1386306D1*
X213605D1*
X217407Y1388207D1*
X219353Y1390108D1*
X221254Y1395857D1*
Y1403506D1*
X219353Y1409210D1*
X217407Y1411155D1*
X213605Y1413056D1*
X207856D1*
X204054Y1411155D1*
X200207Y1407308D1*
X198306Y1401605D1*
X196405Y1393955D1*
X194459Y1390108D1*
X190657Y1388207D1*
X186810D1*
X183007Y1390108D1*
X181106Y1395857D1*
Y1403506D1*
X194459Y1349061D2*
X200207Y1351007D1*
X204054Y1354809D1*
X205955Y1360557D1*
Y1362458D1*
X204054Y1368207D1*
X200207Y1372009D1*
X194459Y1373955D1*
X192558D1*
X186810Y1372009D1*
X183007Y1368207D1*
X181106Y1362458D1*
Y1360557D1*
X183007Y1354809D1*
X186810Y1351007D1*
X194459Y1349061D1*
X204054D1*
X213605Y1351007D1*
X219353Y1354809D1*
X221254Y1360557D1*
Y1364360D1*
X219353Y1370108D1*
X215506Y1372009D1*
M02*
