G04 DipTrace 3.0.0.1*
G04 Bottom.gbr*
%MOIN*%
G04 #@! TF.FileFunction,Copper,L2,Bot*
G04 #@! TF.Part,Single*
%AMOUTLINE0*
4,1,4,
0.002783,-0.038974,
-0.038974,0.002783,
-0.002783,0.038974,
0.038974,-0.002783,
0.002783,-0.038974,
0*%
G04 #@! TA.AperFunction,Conductor*
%ADD10C,0.01*%
%ADD14C,0.007*%
%ADD16C,0.02*%
G04 #@! TA.AperFunction,CopperBalancing*
%ADD17C,0.025*%
G04 #@! TA.AperFunction,Conductor*
%ADD18C,0.04*%
%ADD19C,0.03*%
%ADD20C,0.03937*%
%ADD21C,0.018*%
%ADD22C,0.012*%
%ADD23C,0.015*%
G04 #@! TA.AperFunction,CopperBalancing*
%ADD24C,0.012992*%
G04 #@! TA.AperFunction,ComponentPad*
%ADD26C,0.059055*%
%ADD28R,0.03937X0.108268*%
%ADD29R,0.218504X0.242126*%
%ADD30R,0.059055X0.051181*%
%ADD31R,0.051181X0.059055*%
G04 #@! TA.AperFunction,ComponentPad*
%ADD33C,0.051181*%
%ADD34R,0.051181X0.051181*%
%ADD35C,0.07874*%
%ADD42C,0.048*%
G04 #@! TA.AperFunction,ViaPad*
%ADD43C,0.029*%
%ADD81OUTLINE0*%
%FSLAX26Y26*%
G04*
G70*
G90*
G75*
G01*
G04 Bottom*
%LPD*%
X871522Y1377690D2*
D14*
X915879D1*
X928871Y1364698D1*
Y1263123D1*
X925984Y1260236D1*
X993438Y832940D2*
D17*
Y939501D1*
X1018241Y964304D1*
X1072178D1*
X1083990Y952493D1*
Y841076D1*
X1086220Y838845D1*
X993438Y796457D2*
D18*
Y832940D1*
X1128084Y1721522D2*
D19*
X1270997D1*
X1293045Y1699475D1*
Y1485302D1*
X1086220Y1278478D1*
Y1077572D1*
Y838845D1*
X981102Y1077572D2*
D14*
X1086220D1*
X1265748Y838845D2*
D20*
X1305433D1*
D18*
X1397769D1*
Y706969D1*
X1398570Y706168D1*
Y573097D1*
X1397769Y838845D2*
D16*
Y875722D1*
X1427428Y905381D1*
Y1021522D1*
X1526772Y1120866D1*
X1609713D1*
X1652362Y1078215D1*
X1970735Y1189108D2*
D14*
X1876772D1*
X1713648Y1025984D1*
X1704594D1*
X1674104Y1056475D1*
X1652362Y1078215D1*
X1867717Y1315486D2*
Y1295801D1*
X1913123Y1250394D1*
X1948163D1*
X1970997Y1227559D1*
Y1189370D1*
X1970735Y1189108D1*
X1628084Y1721522D2*
D21*
X1606824D1*
X1557612Y1672310D1*
Y1425066D1*
X1579003Y1403675D1*
Y1348425D1*
X1359186Y1128609D1*
Y952589D1*
X1364400Y947375D1*
X1396063Y915713D1*
Y840551D1*
X1397769Y838845D1*
X1661680Y1001969D2*
D14*
Y1044051D1*
X1674104Y1056475D1*
X1222244Y1261614D2*
D10*
X1156168Y1195538D1*
Y1121391D1*
X1229274Y1048285D1*
D14*
X1330184Y947375D1*
X1364400D1*
X1209383Y957021D2*
D23*
X1267717Y898688D1*
Y840814D1*
X1265748Y838845D1*
X1811155Y589633D2*
D14*
Y631102D1*
X1849475Y669423D1*
X2002887D1*
X2018898Y653412D1*
Y606562D1*
X2018635Y606299D1*
X1943832D2*
Y522310D1*
X1911155Y489633D1*
X2279134Y468635D2*
X2207874D1*
X2152625Y413386D1*
X1987402D1*
X1911155Y489633D1*
X1931234Y965420D2*
Y963255D1*
X1342651Y1159449D2*
X1485958Y1302756D1*
X539895Y617192D2*
X610761D1*
X678740Y1217192D2*
Y1111286D1*
X677822Y1110367D1*
X758136D2*
X677822D1*
X758136D2*
Y1141339D1*
X770472Y1153675D1*
X979803D1*
X981102Y1152375D1*
X1628084Y1521522D2*
X1632546D1*
X1685958Y1468110D1*
Y1412073D1*
X1716667Y1381365D1*
Y1199475D1*
X1732808Y1183333D1*
Y1158661D1*
X1705256Y1131109D1*
X1628084Y1521522D2*
D21*
Y1621522D1*
X1931234Y965420D2*
D14*
X2262402D1*
X2291601Y936220D1*
Y567979D1*
X2281496Y557874D1*
Y470997D1*
X2279134Y468635D1*
X1172966Y577297D2*
X1173753D1*
X1175984Y575066D1*
X910761Y466798D2*
X1067717D1*
X1175984Y575066D1*
X1473373Y706168D2*
D23*
Y573097D1*
Y501969D1*
X1249081D1*
X1175984Y575066D1*
X1792257Y1211680D2*
D14*
X1785827D1*
X1705256Y1131109D1*
X539895Y617192D2*
X433596D1*
X424278Y626509D1*
Y1073622D1*
X459711Y1109055D1*
X677822D1*
Y1110367D1*
X1128084Y1621522D2*
D21*
Y1521522D1*
X1599869Y913255D2*
D14*
X1791470D1*
X1814173Y935958D1*
Y1035302D1*
X1850656Y1071785D1*
X1909580D1*
X1931234Y1050131D1*
Y965420D1*
X910761Y466798D2*
X690289D1*
X539895Y617192D1*
X1911155Y489633D2*
Y432808D1*
X1897507Y419160D1*
X1178084D1*
X1173228Y424016D1*
Y572310D1*
X1175984Y575066D1*
X1128084Y1521522D2*
D22*
Y1381627D1*
X1051706Y1305249D1*
Y1179790D1*
X1023491Y1151575D1*
X981903D1*
X981102Y1152375D1*
X1172835Y991076D2*
D14*
Y578215D1*
X1337008Y460499D2*
X1488320D1*
X1520341Y492520D1*
Y824541D1*
X1511024Y833858D1*
X1477559D1*
X1472572Y838845D1*
X1190289Y1179659D2*
X1184121Y1185827D1*
X1210630Y1212336D1*
X1225591D1*
X1358530Y1345276D1*
X1380184D1*
X1395276Y1360367D1*
Y1776378D1*
X1444094Y1825197D1*
X1229528Y1182546D2*
Y1185827D1*
X1363517Y1319816D1*
X1386745D1*
X1416798Y1349869D1*
Y1751181D1*
X1468373Y1802756D1*
Y1907612D1*
X1449344Y1926640D1*
X1220997Y1128609D2*
X1270735Y1178346D1*
Y1196325D1*
X1366929Y1292520D1*
X1388583D1*
X1440682Y1344619D1*
Y1745144D1*
X1488189Y1792651D1*
Y1980052D1*
X1446719Y2021522D1*
X1267585Y1130971D2*
Y1134514D1*
X1287795Y1154724D1*
Y1185564D1*
X1373097Y1270866D1*
X1393045D1*
X1460105Y1337927D1*
Y1734514D1*
X1511155Y1785564D1*
Y2062205D1*
X1451312Y2122047D1*
X1447244Y2221522D2*
Y2182808D1*
X1533333Y2096719D1*
Y1775853D1*
X1474934Y1717454D1*
Y1329134D1*
X1393045Y1247244D1*
X1380709D1*
X1304856Y1171391D1*
Y1069029D1*
X1297507Y1076378D1*
X1132677Y1009711D2*
Y1032546D1*
X1123491Y1041732D1*
Y1256168D1*
X1330577Y1463255D1*
Y2246325D1*
X1399213Y2314961D1*
X1473097D1*
X1493307Y2335171D1*
Y2704856D1*
X1561811Y2773360D1*
X1670735D1*
X1691995Y2752100D1*
Y2385433D1*
X1628084Y2321522D1*
X1239895Y2474934D2*
X1442651D1*
X1443570Y2474016D1*
X1628084Y2521522D2*
X1647507D1*
X1675722Y2549738D1*
Y2652887D1*
X1663911Y2664698D1*
X1564698D1*
X1512467Y2612467D1*
Y2320341D1*
X1482546Y2290420D1*
X1401444D1*
X1346063Y2235039D1*
Y1446325D1*
X1140289Y1240551D1*
Y1105774D1*
X1308793Y937270D1*
Y931759D1*
X1349344Y891207D1*
X1628084Y2621522D2*
X1560630D1*
X1540420Y2601312D1*
Y2312861D1*
X1494119Y2266560D1*
X1407899D1*
X1368241Y2226903D1*
Y1387927D1*
X1652887Y1406037D2*
Y1382546D1*
X1620997Y1350656D1*
Y1331759D1*
X1396063Y1106824D1*
X1673491Y1364042D2*
Y1340551D1*
X1398556Y1065617D1*
X1871522Y1024803D2*
Y916404D1*
X1561024Y605906D1*
X2045538Y1189108D2*
X2109318D1*
X2167454Y1247244D1*
X2179528Y1352100D2*
X2170341D1*
X2045538Y1227297D1*
Y1189108D1*
X1618898Y1387795D2*
Y1420341D1*
X1587795Y1451444D1*
Y1660892D1*
X1598819Y1671916D1*
X1662336D1*
X1684383Y1693963D1*
Y1739633D1*
X1654068Y1769948D1*
X1580446D1*
X1549213Y1738714D1*
X1438189Y2375328D2*
X1078609D1*
X1063780Y2360499D1*
Y1359186D1*
X1005118Y1300525D1*
Y1260236D1*
X1000787D1*
D43*
X871522Y1377690D3*
X993438Y832940D3*
Y796457D3*
Y832940D3*
X1867717Y1315486D3*
X1661680Y1001969D3*
X1222244Y1261614D3*
X1209383Y957021D3*
X1931234Y965420D3*
X1342651Y1159449D3*
X1485958Y1302756D3*
X539895Y617192D3*
X678740Y1217192D3*
X677822Y1110367D3*
X758136D3*
D3*
X1931234Y965420D3*
X1172966Y577297D3*
X910761Y466798D3*
X1792257Y1211680D3*
X539895Y617192D3*
X1599869Y913255D3*
X1931234Y965420D3*
X910761Y466798D3*
X539895Y617192D3*
X1172835Y991076D3*
X1337008Y460499D3*
X1190289Y1179659D3*
X1444094Y1825197D3*
X1229528Y1182546D3*
X1449344Y1926640D3*
X1220997Y1128609D3*
X1446719Y2021522D3*
X1267585Y1130971D3*
X1451312Y2122047D3*
X1447244Y2221522D3*
X1297507Y1076378D3*
X1132677Y1009711D3*
X1239895Y2474934D3*
X1443570Y2474016D3*
X1349344Y891207D3*
X1368241Y1387927D3*
X1652887Y1406037D3*
X1396063Y1106824D3*
X1673491Y1364042D3*
X1398556Y1065617D3*
X1871522Y1024803D3*
X1561024Y605906D3*
X2167454Y1247244D3*
X2179528Y1352100D3*
X1618898Y1387795D3*
X1549213Y1738714D3*
X1438189Y2375328D3*
X1185727Y2811647D2*
D17*
X1570424D1*
X1174546Y2786778D2*
X1530288D1*
X1169419Y2761909D2*
X1505434D1*
X1184409Y2737041D2*
X1480581D1*
X1185825Y2712172D2*
X1461733D1*
X1545542D2*
X1570327D1*
X1174936Y2687303D2*
X1460805D1*
X1525815D2*
X1542495D1*
X1168881Y2662434D2*
X1460805D1*
X1184262Y2637566D2*
X1460805D1*
X1185922Y2612697D2*
X1460805D1*
X1175327Y2587828D2*
X1460805D1*
X1572934D2*
X1580794D1*
X1168296Y2562959D2*
X1460805D1*
X1572934D2*
X1587883D1*
X1184116Y2538091D2*
X1460805D1*
X1185971Y2513222D2*
X1222719D1*
X1257065D2*
X1429067D1*
X1175717Y2488353D2*
X1198647D1*
X1167710Y2463484D2*
X1198012D1*
X1572934D2*
X1588429D1*
X1183921Y2438615D2*
X1218374D1*
X1261411D2*
X1420376D1*
X1186069Y2413747D2*
X1421352D1*
X1572934Y2364009D2*
X1589065D1*
X1183774Y2339140D2*
X1378969D1*
X1186118Y2314272D2*
X1353579D1*
X1176499Y2289403D2*
X1328725D1*
X1561899D2*
X1579653D1*
X1166489Y2264534D2*
X1304213D1*
X1536997D2*
X1589663D1*
X1183579Y2239665D2*
X1298061D1*
X1509897D2*
X1572573D1*
X1186215Y2214797D2*
X1298061D1*
X1490171D2*
X1569985D1*
X1176840Y2189928D2*
X1298061D1*
X1400717D2*
X1414721D1*
X1485044D2*
X1579311D1*
X1165854Y2165059D2*
X1298061D1*
X1400717D2*
X1420571D1*
X1509897D2*
X1590297D1*
X1183432Y2140190D2*
X1298061D1*
X1400717D2*
X1412080D1*
X1534799D2*
X1572768D1*
X1186264Y2115322D2*
X1298061D1*
X1400717D2*
X1408399D1*
X1559360D2*
X1569906D1*
X1177231Y2090453D2*
X1298061D1*
X1400717D2*
X1422671D1*
X1565854D2*
X1578969D1*
X1165171Y2065584D2*
X1298061D1*
X1400717D2*
X1462856D1*
X1565854D2*
X1590981D1*
X1183237Y2040715D2*
X1298061D1*
X1186313Y2015846D2*
X1298061D1*
X1177573Y1990978D2*
X1298061D1*
X1400717D2*
X1416860D1*
X1565854D2*
X1578596D1*
X1164536Y1966109D2*
X1298061D1*
X1400717D2*
X1435756D1*
X1565854D2*
X1591665D1*
X1183042Y1941240D2*
X1298061D1*
X1400717D2*
X1408560D1*
X1186362Y1916371D2*
X1298061D1*
X1177915Y1891503D2*
X1298061D1*
X1400717D2*
X1425698D1*
X1565854D2*
X1578248D1*
X1163803Y1866634D2*
X1298061D1*
X1400717D2*
X1435854D1*
X1565854D2*
X1592348D1*
X1182846Y1841765D2*
X1298061D1*
X1565854D2*
X1573368D1*
X1186411Y1816896D2*
X1298061D1*
X1178208Y1792028D2*
X1298061D1*
X1163071Y1767159D2*
X1298061D1*
X1507456Y1692552D2*
X1525942D1*
X1162338Y1667684D2*
X1249038D1*
X1507456D2*
X1519594D1*
X1182407Y1642815D2*
X1249038D1*
X1507456D2*
X1519594D1*
X1186508Y1617946D2*
X1249038D1*
X1507456D2*
X1519594D1*
X1178842Y1593077D2*
X1249038D1*
X1507456D2*
X1519594D1*
X1161557Y1568209D2*
X1249038D1*
X1507456D2*
X1519594D1*
X1182212Y1543340D2*
X1249038D1*
X1507456D2*
X1519594D1*
X1186508Y1518471D2*
X1249038D1*
X1507456D2*
X1519594D1*
X1179135Y1493602D2*
X1240151D1*
X1507456D2*
X1519594D1*
X1096274Y1468734D2*
X1106805D1*
X1149350D2*
X1215297D1*
X1507456D2*
X1519594D1*
X1649350D2*
X1672622D1*
X1096274Y1443865D2*
X1190395D1*
X1507456D2*
X1519594D1*
X1096274Y1418996D2*
X1165542D1*
X1507456D2*
X1520131D1*
X1096274Y1394127D2*
X1140688D1*
X1507456D2*
X1535854D1*
X433725Y1369259D2*
X828921D1*
X961020D2*
X1028921D1*
X1096274D2*
X1115860D1*
X1313901D2*
X1329262D1*
X1507456D2*
X1540981D1*
X1716635D2*
X2139809D1*
X2219272D2*
X2322182D1*
X433725Y1344390D2*
X845083D1*
X961362D2*
X1004067D1*
X1289047D2*
X1312710D1*
X1507456D2*
X1522280D1*
X1711997D2*
X1836147D1*
X1899301D2*
X2117690D1*
X2222299D2*
X2322182D1*
X433725Y1319521D2*
X896352D1*
X961362D2*
X979409D1*
X1264194D2*
X1287856D1*
X1697397D2*
X1824428D1*
X1911020D2*
X2092837D1*
X2206919D2*
X2322182D1*
X433725Y1294652D2*
X871401D1*
X1249008D2*
X1262950D1*
X1672495D2*
X1829897D1*
X1913803D2*
X2067983D1*
X2157797D2*
X2322182D1*
X433725Y1269783D2*
X871401D1*
X1647641D2*
X1848794D1*
X1973715D2*
X2043081D1*
X2204184D2*
X2322182D1*
X433725Y1244915D2*
X871401D1*
X1622788D2*
X1873696D1*
X2108090D2*
X2120180D1*
X2210874D2*
X2322182D1*
X433725Y1220046D2*
X871401D1*
X1597934D2*
X1916128D1*
X2200620D2*
X2322182D1*
X433725Y1195177D2*
X922573D1*
X1573032D2*
X1691469D1*
X1713521D2*
X1837905D1*
X2160337D2*
X2322182D1*
X433725Y1170308D2*
X922573D1*
X1548178D2*
X1662710D1*
X1742221D2*
X1813051D1*
X2135434D2*
X2322182D1*
X433725Y1145440D2*
X922573D1*
X1766977D2*
X1788198D1*
X1878012D2*
X1916128D1*
X2100131D2*
X2322182D1*
X433725Y1120571D2*
X922573D1*
X1853159D2*
X2322182D1*
X433725Y1095702D2*
X922573D1*
X1828305D2*
X2322182D1*
X433725Y1070833D2*
X922573D1*
X1530844D2*
X1586440D1*
X1803403D2*
X2322182D1*
X433725Y1045965D2*
X922573D1*
X1505991D2*
X1608462D1*
X1778549D2*
X1833901D1*
X1909116D2*
X2322182D1*
X433725Y1021096D2*
X1042202D1*
X1301401D2*
X1321206D1*
X1481137D2*
X1622915D1*
X1762924D2*
X1828188D1*
X1914878D2*
X2322182D1*
X433725Y996227D2*
X993325D1*
X1173911D2*
X1194887D1*
X1466440D2*
X1618569D1*
X1778305D2*
X1839028D1*
X1904038D2*
X2322182D1*
X433725Y971358D2*
X967641D1*
X1149692D2*
X1168471D1*
X1466440D2*
X1631899D1*
X1778647D2*
X1839028D1*
X1904038D2*
X2322182D1*
X433725Y946490D2*
X952553D1*
X1130210D2*
X1167251D1*
X1466440D2*
X1689858D1*
X1764194D2*
X1839028D1*
X1904038D2*
X2322182D1*
X433725Y921621D2*
X951919D1*
X1130210D2*
X1186196D1*
X1466440D2*
X1831801D1*
X1904038D2*
X2322182D1*
X433725Y896752D2*
X951919D1*
X1134897D2*
X1217055D1*
X1465415D2*
X1574184D1*
X1611167D2*
X1806948D1*
X1896713D2*
X2322182D1*
X433725Y871883D2*
X951919D1*
X1134897D2*
X1217055D1*
X1527182D2*
X1545229D1*
X1640122D2*
X1782094D1*
X1871909D2*
X2322182D1*
X433725Y847014D2*
X946596D1*
X1134897D2*
X1217055D1*
X1645639D2*
X1757192D1*
X1847055D2*
X2322182D1*
X433725Y822146D2*
X944448D1*
X1134897D2*
X1217055D1*
X1638022D2*
X1732338D1*
X1822202D2*
X2322182D1*
X433725Y797277D2*
X944448D1*
X1134897D2*
X1217055D1*
X1552817D2*
X1707485D1*
X1797299D2*
X2322182D1*
X433725Y772408D2*
X951137D1*
X1134897D2*
X1217055D1*
X1314438D2*
X1348745D1*
X1446762D2*
X1487856D1*
X1552817D2*
X1682583D1*
X1772446D2*
X2322182D1*
X433725Y747539D2*
X1343960D1*
X1552817D2*
X1657729D1*
X1747592D2*
X2322182D1*
X433725Y722671D2*
X1343960D1*
X1552817D2*
X1632876D1*
X1722739D2*
X2322182D1*
X433725Y697802D2*
X1037710D1*
X1314243D2*
X1343960D1*
X1552817D2*
X1607973D1*
X1697837D2*
X1837270D1*
X2015122D2*
X2322182D1*
X433725Y672933D2*
X1037710D1*
X1314243D2*
X1343960D1*
X1552817D2*
X1583120D1*
X1672983D2*
X1808071D1*
X2044174D2*
X2322182D1*
X433725Y648064D2*
X1037710D1*
X1314243D2*
X1349575D1*
X1447592D2*
X1487856D1*
X1648129D2*
X1783901D1*
X2073227D2*
X2322182D1*
X433725Y623196D2*
X1037710D1*
X1314243D2*
X1343960D1*
X1623227D2*
X1768813D1*
X1853501D2*
X1889223D1*
X2073227D2*
X2322182D1*
X433725Y598327D2*
X1037710D1*
X1314243D2*
X1343960D1*
X1603794D2*
X1757290D1*
X1865024D2*
X1889223D1*
X2073227D2*
X2322182D1*
X433725Y573458D2*
X1037710D1*
X1314243D2*
X1343960D1*
X1588608D2*
X1759145D1*
X1863169D2*
X1889223D1*
X2073227D2*
X2322182D1*
X433725Y548589D2*
X1037710D1*
X1314243D2*
X1343960D1*
X1552817D2*
X1776577D1*
X1845737D2*
X2322182D1*
X433725Y523720D2*
X1037710D1*
X1314243D2*
X1343960D1*
X1552817D2*
X1669253D1*
X1753061D2*
X1856557D1*
X1965756D2*
X2043667D1*
X2120883D2*
X2240493D1*
X433725Y498852D2*
X1037710D1*
X1353989D2*
X1481753D1*
X1552817D2*
X1657387D1*
X1764926D2*
X1856557D1*
X1965756D2*
X2021254D1*
X2143296D2*
X2218081D1*
X433725Y473983D2*
X1037710D1*
X1546421D2*
X1658950D1*
X1763315D2*
X1856557D1*
X1965756D2*
X2014126D1*
X2150424D2*
X2211001D1*
X433725Y449114D2*
X1037710D1*
X1521860D2*
X1675942D1*
X1746372D2*
X1856557D1*
X1965756D2*
X2016860D1*
X2147690D2*
X2213735D1*
X1183939Y2817126D2*
X1182564Y2808443D1*
X1179847Y2800081D1*
X1175855Y2792248D1*
X1170688Y2785135D1*
X1164471Y2778919D1*
X1157358Y2773751D1*
X1153520Y2771443D1*
X1161016Y2766850D1*
X1167701Y2761140D1*
X1173411Y2754454D1*
X1178005Y2746958D1*
X1181369Y2738836D1*
X1183422Y2730287D1*
X1184112Y2721522D1*
X1183422Y2712758D1*
X1181369Y2704209D1*
X1178005Y2696086D1*
X1173411Y2688590D1*
X1167701Y2681905D1*
X1161016Y2676195D1*
X1153348Y2671522D1*
X1161016Y2666850D1*
X1167701Y2661140D1*
X1173411Y2654454D1*
X1178005Y2646958D1*
X1181369Y2638836D1*
X1183422Y2630287D1*
X1184112Y2621522D1*
X1183422Y2612758D1*
X1181369Y2604209D1*
X1178005Y2596086D1*
X1173411Y2588590D1*
X1167701Y2581905D1*
X1161016Y2576195D1*
X1153348Y2571522D1*
X1161016Y2566850D1*
X1167701Y2561140D1*
X1173411Y2554454D1*
X1178005Y2546958D1*
X1181369Y2538836D1*
X1183422Y2530287D1*
X1184112Y2521522D1*
X1183422Y2512758D1*
X1181369Y2504209D1*
X1178005Y2496086D1*
X1173411Y2488590D1*
X1167701Y2481905D1*
X1161016Y2476195D1*
X1153348Y2471522D1*
X1161016Y2466850D1*
X1167701Y2461140D1*
X1173411Y2454454D1*
X1178005Y2446958D1*
X1181369Y2438836D1*
X1183422Y2430287D1*
X1184112Y2421522D1*
X1183422Y2412758D1*
X1181682Y2405317D1*
X1410201Y2405328D1*
X1416767Y2410286D1*
X1422499Y2413207D1*
X1428618Y2415195D1*
X1434972Y2416202D1*
X1441406D1*
X1447760Y2415195D1*
X1453879Y2413207D1*
X1459611Y2410286D1*
X1463305Y2407696D1*
X1463307Y2438051D1*
X1456239Y2435022D1*
X1449983Y2433521D1*
X1443570Y2433016D1*
X1437156Y2433521D1*
X1430900Y2435022D1*
X1424956Y2437484D1*
X1419470Y2440846D1*
X1414680Y2444930D1*
X1267797Y2444934D1*
X1261317Y2439976D1*
X1255585Y2437055D1*
X1249466Y2435067D1*
X1243112Y2434061D1*
X1236678D1*
X1230324Y2435067D1*
X1224205Y2437055D1*
X1218473Y2439976D1*
X1213268Y2443758D1*
X1208718Y2448307D1*
X1204937Y2453512D1*
X1202016Y2459244D1*
X1200028Y2465363D1*
X1199021Y2471718D1*
Y2478151D1*
X1200028Y2484506D1*
X1202016Y2490624D1*
X1204937Y2496357D1*
X1208718Y2501562D1*
X1213268Y2506111D1*
X1218473Y2509893D1*
X1224205Y2512813D1*
X1230324Y2514802D1*
X1236678Y2515808D1*
X1243112D1*
X1249466Y2514802D1*
X1255585Y2512813D1*
X1261317Y2509893D1*
X1267787Y2504942D1*
X1416942Y2505192D1*
X1422147Y2508974D1*
X1427880Y2511895D1*
X1433998Y2513883D1*
X1440353Y2514889D1*
X1446786D1*
X1453141Y2513883D1*
X1459260Y2511895D1*
X1463307Y2510171D1*
X1463399Y2707209D1*
X1464775Y2714126D1*
X1467728Y2720531D1*
X1472094Y2726069D1*
X1542328Y2796172D1*
X1548191Y2800090D1*
X1554808Y2802531D1*
X1561811Y2803360D1*
X1575043D1*
X1572746Y2812758D1*
X1572056Y2821522D1*
X1572746Y2830287D1*
X1574141Y2836504D1*
X1182081Y2836516D1*
X1183422Y2830287D1*
X1184112Y2821522D1*
X1183939Y2817126D1*
Y2317126D2*
X1182564Y2308443D1*
X1179847Y2300081D1*
X1175855Y2292248D1*
X1170688Y2285135D1*
X1164471Y2278919D1*
X1157358Y2273751D1*
X1153520Y2271443D1*
X1161016Y2266850D1*
X1167701Y2261140D1*
X1173411Y2254454D1*
X1178005Y2246958D1*
X1181369Y2238836D1*
X1183422Y2230287D1*
X1184112Y2221522D1*
X1183422Y2212758D1*
X1181369Y2204209D1*
X1178005Y2196086D1*
X1173411Y2188590D1*
X1167701Y2181905D1*
X1161016Y2176195D1*
X1153348Y2171522D1*
X1161016Y2166850D1*
X1167701Y2161140D1*
X1173411Y2154454D1*
X1178005Y2146958D1*
X1181369Y2138836D1*
X1183422Y2130287D1*
X1184112Y2121522D1*
X1183422Y2112758D1*
X1181369Y2104209D1*
X1178005Y2096086D1*
X1173411Y2088590D1*
X1167701Y2081905D1*
X1161016Y2076195D1*
X1153348Y2071522D1*
X1161016Y2066850D1*
X1167701Y2061140D1*
X1173411Y2054454D1*
X1178005Y2046958D1*
X1181369Y2038836D1*
X1183422Y2030287D1*
X1184112Y2021522D1*
X1183422Y2012758D1*
X1181369Y2004209D1*
X1178005Y1996086D1*
X1173411Y1988590D1*
X1167701Y1981905D1*
X1161016Y1976195D1*
X1153348Y1971522D1*
X1161016Y1966850D1*
X1167701Y1961140D1*
X1173411Y1954454D1*
X1178005Y1946958D1*
X1181369Y1938836D1*
X1183422Y1930287D1*
X1184112Y1921522D1*
X1183422Y1912758D1*
X1181369Y1904209D1*
X1178005Y1896086D1*
X1173411Y1888590D1*
X1167701Y1881905D1*
X1161016Y1876195D1*
X1153348Y1871522D1*
X1161016Y1866850D1*
X1167701Y1861140D1*
X1173411Y1854454D1*
X1178005Y1846958D1*
X1181369Y1838836D1*
X1183422Y1830287D1*
X1184112Y1821522D1*
X1183422Y1812758D1*
X1181369Y1804209D1*
X1178005Y1796086D1*
X1173411Y1788590D1*
X1167701Y1781905D1*
X1161016Y1776195D1*
X1153348Y1771522D1*
X1161016Y1766850D1*
X1165670Y1763018D1*
X1274253Y1762894D1*
X1280685Y1761876D1*
X1286879Y1759863D1*
X1292681Y1756907D1*
X1297949Y1753079D1*
X1300577Y1750755D1*
X1300670Y2248679D1*
X1302046Y2255596D1*
X1304998Y2262000D1*
X1309364Y2267539D1*
X1379729Y2337773D1*
X1385593Y2341691D1*
X1392209Y2344132D1*
X1399213Y2344961D1*
X1410687D1*
X1388189Y2345328D1*
X1178765D1*
X1181369Y2338836D1*
X1183422Y2330287D1*
X1184112Y2321522D1*
X1183939Y2317126D1*
X1165670Y1680027D2*
X1161016Y1676195D1*
X1153348Y1671522D1*
X1159604Y1667843D1*
X1165504Y1663222D1*
X1170734Y1657855D1*
X1175202Y1651837D1*
X1178826Y1645277D1*
X1181543Y1638293D1*
X1183303Y1631008D1*
X1184112Y1621522D1*
X1183610Y1614045D1*
X1182116Y1606701D1*
X1179654Y1599622D1*
X1176270Y1592935D1*
X1172023Y1586760D1*
X1166991Y1581207D1*
X1161262Y1576375D1*
X1153353Y1571529D1*
X1159604Y1567843D1*
X1165504Y1563222D1*
X1170734Y1557855D1*
X1175202Y1551837D1*
X1178826Y1545277D1*
X1181543Y1538293D1*
X1183303Y1531008D1*
X1184112Y1521522D1*
X1183610Y1514045D1*
X1182116Y1506701D1*
X1179654Y1499622D1*
X1176270Y1492935D1*
X1172023Y1486760D1*
X1166991Y1481207D1*
X1161262Y1476375D1*
X1154940Y1472351D1*
X1148137Y1469206D1*
X1140975Y1466998D1*
X1133583Y1465765D1*
X1126092Y1465530D1*
X1118637Y1466297D1*
X1111351Y1468052D1*
X1104365Y1470763D1*
X1097802Y1474383D1*
X1093776Y1477229D1*
X1093687Y1356833D1*
X1092311Y1349916D1*
X1089359Y1343511D1*
X1084993Y1337973D1*
X1052848Y1305829D1*
X1054664Y1305430D1*
X1127586Y1378533D1*
X1251572Y1502519D1*
X1251545Y1679980D1*
X1165773Y1680022D1*
X1675097Y1491055D2*
X1670429Y1484835D1*
X1665154Y1479511D1*
X1659215Y1474940D1*
X1652720Y1471202D1*
X1645783Y1468364D1*
X1638530Y1466477D1*
X1631090Y1465575D1*
X1623597Y1465675D1*
X1617803Y1466459D1*
X1617847Y1463818D1*
X1637585Y1444080D1*
X1643316Y1445904D1*
X1649670Y1446910D1*
X1656104D1*
X1662458Y1445904D1*
X1668577Y1443916D1*
X1675094Y1440471D1*
X1675098Y1491004D1*
X1576501Y1799691D2*
X1573604Y1808443D1*
X1572229Y1817126D1*
Y1825918D1*
X1573604Y1834602D1*
X1576321Y1842963D1*
X1580313Y1850797D1*
X1585480Y1857909D1*
X1591697Y1864126D1*
X1598810Y1869294D1*
X1602648Y1871601D1*
X1595152Y1876195D1*
X1588467Y1881905D1*
X1582757Y1888590D1*
X1578163Y1896086D1*
X1574799Y1904209D1*
X1572746Y1912758D1*
X1572056Y1921522D1*
X1572746Y1930287D1*
X1574799Y1938836D1*
X1578163Y1946958D1*
X1582757Y1954454D1*
X1588467Y1961140D1*
X1595152Y1966850D1*
X1602820Y1971522D1*
X1595152Y1976195D1*
X1588467Y1981905D1*
X1582757Y1988590D1*
X1578163Y1996086D1*
X1574799Y2004209D1*
X1572746Y2012758D1*
X1572056Y2021522D1*
X1572746Y2030287D1*
X1574799Y2038836D1*
X1578163Y2046958D1*
X1582757Y2054454D1*
X1588467Y2061140D1*
X1595152Y2066850D1*
X1602820Y2071522D1*
X1595152Y2076195D1*
X1588467Y2081905D1*
X1582757Y2088590D1*
X1578163Y2096086D1*
X1574799Y2104209D1*
X1572746Y2112758D1*
X1572056Y2121522D1*
X1572746Y2130287D1*
X1574799Y2138836D1*
X1578163Y2146958D1*
X1582757Y2154454D1*
X1588467Y2161140D1*
X1595152Y2166850D1*
X1602820Y2171522D1*
X1595152Y2176195D1*
X1588467Y2181905D1*
X1582757Y2188590D1*
X1578163Y2196086D1*
X1574799Y2204209D1*
X1572746Y2212758D1*
X1572056Y2221522D1*
X1572746Y2230287D1*
X1574799Y2238836D1*
X1578163Y2246958D1*
X1582757Y2254454D1*
X1588467Y2261140D1*
X1595152Y2266850D1*
X1602820Y2271522D1*
X1595152Y2276195D1*
X1588467Y2281905D1*
X1582757Y2288590D1*
X1578163Y2296086D1*
X1574799Y2304209D1*
X1572746Y2312758D1*
X1572056Y2321522D1*
X1572746Y2330287D1*
X1574799Y2338836D1*
X1578163Y2346958D1*
X1582757Y2354454D1*
X1588467Y2361140D1*
X1595152Y2366850D1*
X1602820Y2371522D1*
X1595152Y2376195D1*
X1588467Y2381905D1*
X1582757Y2388590D1*
X1578163Y2396086D1*
X1574799Y2404209D1*
X1572746Y2412758D1*
X1572056Y2421522D1*
X1572746Y2430287D1*
X1574799Y2438836D1*
X1578163Y2446958D1*
X1582757Y2454454D1*
X1588467Y2461140D1*
X1595152Y2466850D1*
X1602820Y2471522D1*
X1595152Y2476195D1*
X1588467Y2481905D1*
X1582757Y2488590D1*
X1578163Y2496086D1*
X1574799Y2504209D1*
X1572746Y2512758D1*
X1572056Y2521522D1*
X1572746Y2530287D1*
X1574799Y2538836D1*
X1578163Y2546958D1*
X1582757Y2554454D1*
X1588467Y2561140D1*
X1595152Y2566850D1*
X1602820Y2571522D1*
X1595152Y2576195D1*
X1588467Y2581905D1*
X1582757Y2588590D1*
X1580800Y2591519D1*
X1573004Y2591470D1*
X1570420Y2588812D1*
X1570328Y2310507D1*
X1568952Y2303590D1*
X1565999Y2297186D1*
X1561633Y2291648D1*
X1513603Y2243748D1*
X1507739Y2239830D1*
X1501123Y2237389D1*
X1494110Y2236561D1*
X1486237Y2234192D1*
X1487739Y2227936D1*
X1488244Y2221522D1*
X1487739Y2215108D1*
X1486237Y2208853D1*
X1483775Y2202909D1*
X1480414Y2197423D1*
X1478020Y2194461D1*
X1556146Y2116203D1*
X1560064Y2110339D1*
X1562505Y2103723D1*
X1563333Y2096719D1*
Y1794620D1*
X1568966Y1797664D1*
X1575762Y1799579D1*
X1578944Y2694692D2*
X1576321Y2700081D1*
X1573604Y2708443D1*
X1572229Y2717126D1*
Y2725918D1*
X1573604Y2734602D1*
X1576501Y2743353D1*
X1574185Y2743307D1*
X1523307Y2692356D1*
Y2665744D1*
X1545215Y2687510D1*
X1551078Y2691428D1*
X1557695Y2693869D1*
X1564698Y2694698D1*
X1578907D1*
X1127707Y919479D2*
X1132406D1*
Y758211D1*
X1040035D1*
Y919479D1*
X1044674D1*
X1034434Y925304D1*
X1032438Y914501D1*
Y858300D1*
X1036399Y850734D1*
X1038654Y843795D1*
X1039795Y836588D1*
X1039938Y796457D1*
X1039366Y789182D1*
X1037662Y782087D1*
X1034870Y775346D1*
X1031058Y769125D1*
X1026319Y763576D1*
X1020770Y758837D1*
X1014549Y755025D1*
X1007808Y752233D1*
X1000713Y750529D1*
X993438Y749957D1*
X986164Y750529D1*
X979069Y752233D1*
X972328Y755025D1*
X966106Y758837D1*
X960558Y763576D1*
X955819Y769125D1*
X952006Y775346D1*
X949214Y782087D1*
X947511Y789182D1*
X946938Y796457D1*
X947082Y836588D1*
X948223Y843795D1*
X950478Y850734D1*
X954432Y858196D1*
X954558Y942561D1*
X955516Y948606D1*
X957407Y954426D1*
X960185Y959879D1*
X963782Y964830D1*
X992913Y993960D1*
X997864Y997558D1*
X1003317Y1000336D1*
X1009137Y1002227D1*
X1015182Y1003184D1*
X1044755Y1003305D1*
X1044720Y1047585D1*
X1037130Y1042162D1*
Y1025481D1*
X925075D1*
Y1204209D1*
X873894D1*
Y1316264D1*
X898845D1*
X898871Y1347157D1*
X892945Y1342732D1*
X887212Y1339811D1*
X881094Y1337823D1*
X874739Y1336817D1*
X868305D1*
X861951Y1337823D1*
X855832Y1339811D1*
X850100Y1342732D1*
X844895Y1346514D1*
X840346Y1351063D1*
X836564Y1356268D1*
X833643Y1362000D1*
X831655Y1368119D1*
X830649Y1374473D1*
X830606Y1379814D1*
X431247Y1379823D1*
X431201Y431239D1*
X1040234Y431201D1*
X1040232Y722629D1*
X1311736D1*
Y492775D1*
X1318394Y497030D1*
X1324338Y499492D1*
X1330594Y500994D1*
X1337008Y501499D1*
X1343422Y500994D1*
X1349678Y499492D1*
X1355621Y497030D1*
X1361107Y493668D1*
X1364900Y490506D1*
X1475946Y490551D1*
X1490341Y505020D1*
Y517080D1*
X1346479Y517069D1*
Y629125D1*
X1352094D1*
X1352069Y650099D1*
X1346479Y650140D1*
Y762195D1*
X1351313D1*
X1351269Y782799D1*
X1345679Y782817D1*
Y792339D1*
X1311978Y792345D1*
X1311933Y758211D1*
X1219563D1*
Y898787D1*
X1201518Y916803D1*
X1193693Y919142D1*
X1187961Y922063D1*
X1182756Y925844D1*
X1178207Y930394D1*
X1174425Y935599D1*
X1171504Y941331D1*
X1169516Y947450D1*
X1168510Y953804D1*
Y960238D1*
X1169516Y966592D1*
X1171504Y972711D1*
X1174425Y978443D1*
X1178207Y983648D1*
X1182756Y988198D1*
X1187961Y991979D1*
X1193693Y994900D1*
X1199812Y996888D1*
X1205779Y997849D1*
X1160901Y1042736D1*
X1161850Y1039540D1*
X1167635Y1031134D1*
X1170556Y1025401D1*
X1172544Y1019283D1*
X1173551Y1012928D1*
Y1006494D1*
X1172544Y1000140D1*
X1170556Y994021D1*
X1167635Y988289D1*
X1163854Y983084D1*
X1159305Y978535D1*
X1154100Y974753D1*
X1148367Y971832D1*
X1142248Y969844D1*
X1135894Y968838D1*
X1127724Y969043D1*
X1127721Y919516D1*
X1037130Y1204202D2*
Y1107581D1*
X1044725Y1107572D1*
X1044720Y1204184D1*
X1037107Y1204209D1*
X1445063Y629125D2*
X1490335D1*
X1490341Y650186D1*
X1445063Y650140D1*
X1445070Y629166D1*
X1444282Y762195D2*
X1490335D1*
X1490341Y782803D1*
X1444243Y782817D1*
X1444269Y762234D1*
X1629537Y1027374D2*
X1591950Y1065423D1*
X1588906Y1070858D1*
X1587215Y1076853D1*
X1586971Y1083086D1*
X1584713Y1084366D1*
X1541890D1*
X1463951Y1006427D1*
X1463815Y902517D1*
X1462916Y896849D1*
X1470482Y894872D1*
X1524663D1*
Y860546D1*
X1530507Y856670D1*
X1541561Y845747D1*
X1542807Y856753D1*
X1544657Y864458D1*
X1547689Y871780D1*
X1551830Y878536D1*
X1556976Y884562D1*
X1563002Y889708D1*
X1569759Y893849D1*
X1577080Y896881D1*
X1584785Y898731D1*
X1592685Y899353D1*
X1600585Y898731D1*
X1608290Y896881D1*
X1615612Y893849D1*
X1622368Y889708D1*
X1628394Y884562D1*
X1633540Y878536D1*
X1637681Y871780D1*
X1640713Y864458D1*
X1642563Y856753D1*
X1643185Y848853D1*
X1642563Y840953D1*
X1640713Y833248D1*
X1637681Y825926D1*
X1633540Y819170D1*
X1628394Y813144D1*
X1622368Y807998D1*
X1615612Y803857D1*
X1608290Y800825D1*
X1600585Y798975D1*
X1592685Y798353D1*
X1584785Y798975D1*
X1577080Y800825D1*
X1569759Y803857D1*
X1563002Y807998D1*
X1556976Y813144D1*
X1551830Y819170D1*
X1550341Y821398D1*
Y645488D1*
X1557807Y646779D1*
X1559528Y646847D1*
X1841522Y928904D1*
Y996824D1*
X1836564Y1003381D1*
X1833643Y1009113D1*
X1831655Y1015232D1*
X1830649Y1021586D1*
Y1028020D1*
X1831655Y1034374D1*
X1833643Y1040493D1*
X1836564Y1046226D1*
X1840346Y1051431D1*
X1844895Y1055980D1*
X1850100Y1059761D1*
X1855832Y1062682D1*
X1861951Y1064670D1*
X1868305Y1065677D1*
X1874739D1*
X1881094Y1064670D1*
X1887212Y1062682D1*
X1892945Y1059761D1*
X1898150Y1055980D1*
X1902699Y1051431D1*
X1906481Y1046226D1*
X1909401Y1040493D1*
X1911389Y1034374D1*
X1912396Y1028020D1*
Y1021586D1*
X1911389Y1015232D1*
X1909401Y1009113D1*
X1906481Y1003381D1*
X1901529Y996911D1*
X1901430Y914050D1*
X1900054Y907134D1*
X1897102Y900729D1*
X1892736Y895191D1*
X1601986Y604442D1*
X1600891Y596334D1*
X1598903Y590215D1*
X1595982Y584483D1*
X1592200Y579278D1*
X1587651Y574729D1*
X1582446Y570947D1*
X1576714Y568026D1*
X1570595Y566038D1*
X1564240Y565032D1*
X1557807D1*
X1550351Y566349D1*
X1550249Y490166D1*
X1548873Y483249D1*
X1545921Y476845D1*
X1541555Y471306D1*
X1507804Y437686D1*
X1501940Y433768D1*
X1495315Y431326D1*
X1693701Y431201D1*
X2028125D1*
X2023593Y438731D1*
X2019637Y448280D1*
X2017224Y458331D1*
X2016413Y468635D1*
X2017224Y478940D1*
X2019637Y488990D1*
X2023593Y498540D1*
X2028993Y507353D1*
X2035706Y515212D1*
X2043566Y521925D1*
X2052379Y527326D1*
X2061928Y531281D1*
X2071979Y533694D1*
X2082283Y534505D1*
X2092588Y533694D1*
X2102638Y531281D1*
X2112188Y527326D1*
X2121001Y521925D1*
X2128861Y515212D1*
X2135573Y507353D1*
X2140974Y498540D1*
X2144930Y488990D1*
X2147343Y478940D1*
X2148154Y468635D1*
X2147343Y458331D1*
X2144930Y448280D1*
X2140974Y438731D1*
X2136438Y431211D1*
X2224902Y431201D1*
X2219733Y440168D1*
X2216111Y449479D1*
X2213939Y459230D1*
X2213266Y469198D1*
X2214109Y479153D1*
X2216447Y488866D1*
X2220228Y498113D1*
X2225363Y506683D1*
X2231736Y514377D1*
X2239199Y521019D1*
X2247580Y526456D1*
X2256687Y530563D1*
X2266311Y533245D1*
X2276229Y534441D1*
X2286215Y534124D1*
X2296037Y532299D1*
X2305471Y529011D1*
X2314299Y524334D1*
X2322318Y518375D1*
X2324699Y516190D1*
X2324705Y1379785D1*
X2209714Y1379823D1*
X2214486Y1373522D1*
X2217407Y1367790D1*
X2219395Y1361671D1*
X2220401Y1355317D1*
Y1348883D1*
X2219395Y1342528D1*
X2217407Y1336410D1*
X2214486Y1330677D1*
X2210704Y1325472D1*
X2206155Y1320923D1*
X2200950Y1317141D1*
X2195218Y1314221D1*
X2189099Y1312233D1*
X2182744Y1311226D1*
X2176311D1*
X2172411Y1311744D1*
X2097607Y1236939D1*
X2097629Y1219891D1*
X2126463Y1248680D1*
X2127587Y1256815D1*
X2129575Y1262934D1*
X2132496Y1268667D1*
X2136277Y1273871D1*
X2140827Y1278421D1*
X2146032Y1282202D1*
X2151764Y1285123D1*
X2157883Y1287111D1*
X2164237Y1288118D1*
X2170671D1*
X2177025Y1287111D1*
X2183144Y1285123D1*
X2188877Y1282202D1*
X2194081Y1278421D1*
X2198631Y1273871D1*
X2202412Y1268667D1*
X2205333Y1262934D1*
X2207321Y1256815D1*
X2208328Y1250461D1*
Y1244027D1*
X2207321Y1237673D1*
X2205333Y1231554D1*
X2202412Y1225822D1*
X2198631Y1220617D1*
X2194081Y1216067D1*
X2188877Y1212286D1*
X2183144Y1209365D1*
X2177025Y1207377D1*
X2168949Y1206303D1*
X2128801Y1166295D1*
X2122937Y1162377D1*
X2116321Y1159936D1*
X2109318Y1159108D1*
X2097648D1*
X2097629Y1133080D1*
X1918645D1*
Y1159105D1*
X1889146Y1159056D1*
X1755217Y1025126D1*
X1762743Y1018911D1*
X1767889Y1012885D1*
X1772030Y1006129D1*
X1775062Y998807D1*
X1776912Y991102D1*
X1777534Y983202D1*
X1776912Y975302D1*
X1775062Y967597D1*
X1772030Y960276D1*
X1767889Y953519D1*
X1762743Y947493D1*
X1756717Y942347D1*
X1749961Y938206D1*
X1742639Y935174D1*
X1734934Y933324D1*
X1727034Y932702D1*
X1719134Y933324D1*
X1711429Y935174D1*
X1704108Y938206D1*
X1697351Y942347D1*
X1691325Y947493D1*
X1686179Y953519D1*
X1682038Y960276D1*
X1679880Y965228D1*
X1674349Y962975D1*
X1668094Y961473D1*
X1661680Y960969D1*
X1655266Y961473D1*
X1649010Y962975D1*
X1643066Y965437D1*
X1637581Y968799D1*
X1632688Y972977D1*
X1628510Y977869D1*
X1625149Y983355D1*
X1622686Y989299D1*
X1621185Y995555D1*
X1620680Y1001969D1*
X1621185Y1008382D1*
X1622686Y1014638D1*
X1625149Y1020582D1*
X1629546Y1027381D1*
X1621447Y1035465D1*
X1649312Y1154399D2*
X1686896Y1191522D1*
X1692332Y1194566D1*
X1698327Y1196257D1*
X1704552Y1196501D1*
X1710662Y1195286D1*
X1716319Y1192678D1*
X1721211Y1188821D1*
X1764381Y1145536D1*
X1767842Y1140357D1*
X1769998Y1134512D1*
X1770730Y1128326D1*
X1770647Y1126239D1*
X1771985Y1126747D1*
X1857288Y1211920D1*
X1863152Y1215838D1*
X1869768Y1218279D1*
X1876772Y1219108D1*
X1918617D1*
X1913123Y1220394D1*
X1906120Y1221223D1*
X1899504Y1223663D1*
X1893640Y1227581D1*
X1844904Y1276317D1*
X1840986Y1282181D1*
X1838725Y1286494D1*
X1834547Y1291386D1*
X1831185Y1296872D1*
X1828723Y1302816D1*
X1827221Y1309072D1*
X1826717Y1315486D1*
X1827221Y1321899D1*
X1828723Y1328155D1*
X1831185Y1334099D1*
X1834547Y1339585D1*
X1838725Y1344477D1*
X1843617Y1348655D1*
X1849103Y1352017D1*
X1855047Y1354479D1*
X1861303Y1355981D1*
X1867717Y1356486D1*
X1874130Y1355981D1*
X1880386Y1354479D1*
X1886330Y1352017D1*
X1891816Y1348655D1*
X1896708Y1344477D1*
X1900886Y1339585D1*
X1904248Y1334099D1*
X1906710Y1328155D1*
X1908212Y1321899D1*
X1908717Y1315486D1*
X1908212Y1309072D1*
X1906710Y1302816D1*
X1905748Y1300208D1*
X1925623Y1280394D1*
X1950517Y1280301D1*
X1957433Y1278925D1*
X1963838Y1275973D1*
X1969376Y1271607D1*
X1993810Y1247043D1*
X1995273Y1245185D1*
X2021426Y1245135D1*
X2024325Y1248510D1*
X2140534Y1364769D1*
X2142996Y1370713D1*
X2146358Y1376199D1*
X2149367Y1379826D1*
X1711370Y1379732D1*
X1713358Y1373613D1*
X1714364Y1367259D1*
Y1360825D1*
X1713358Y1354471D1*
X1711370Y1348352D1*
X1708449Y1342620D1*
X1704667Y1337415D1*
X1703105Y1335725D1*
X1701207Y1329071D1*
X1697761Y1322918D1*
X1694704Y1319338D1*
X1532739Y1157373D1*
X1612576Y1157254D1*
X1618233Y1156358D1*
X1623681Y1154588D1*
X1628784Y1151988D1*
X1633418Y1148621D1*
X1635530Y1146667D1*
X1641800Y1144034D1*
X1644843Y1149469D1*
X1649312Y1154399D1*
X1763085Y485546D2*
X1761806Y477472D1*
X1759280Y469698D1*
X1755569Y462415D1*
X1750765Y455802D1*
X1744985Y450023D1*
X1738372Y445218D1*
X1731089Y441507D1*
X1723315Y438981D1*
X1715242Y437703D1*
X1707068D1*
X1698995Y438981D1*
X1691221Y441507D1*
X1683938Y445218D1*
X1677325Y450023D1*
X1671545Y455802D1*
X1666740Y462415D1*
X1663029Y469698D1*
X1660504Y477472D1*
X1659225Y485546D1*
Y493720D1*
X1660504Y501793D1*
X1663029Y509567D1*
X1666740Y516850D1*
X1671545Y523463D1*
X1677325Y529243D1*
X1683938Y534047D1*
X1691221Y537758D1*
X1698995Y540284D1*
X1707068Y541563D1*
X1715242D1*
X1723315Y540284D1*
X1731089Y537758D1*
X1738372Y534047D1*
X1744985Y529243D1*
X1750765Y523463D1*
X1755569Y516850D1*
X1759280Y509567D1*
X1761806Y501793D1*
X1763085Y493720D1*
Y485546D1*
X1863085Y585546D2*
X1861806Y577472D1*
X1859280Y569698D1*
X1855569Y562415D1*
X1850765Y555802D1*
X1844985Y550023D1*
X1838372Y545218D1*
X1831089Y541507D1*
X1823315Y538981D1*
X1815242Y537703D1*
X1807068D1*
X1798995Y538981D1*
X1791221Y541507D1*
X1783938Y545218D1*
X1777325Y550023D1*
X1771545Y555802D1*
X1766740Y562415D1*
X1763029Y569698D1*
X1760504Y577472D1*
X1759225Y585546D1*
Y593720D1*
X1760504Y601793D1*
X1763029Y609567D1*
X1766740Y616850D1*
X1771545Y623463D1*
X1777325Y629243D1*
X1781188Y632210D1*
X1781984Y638106D1*
X1784425Y644722D1*
X1788343Y650586D1*
X1829992Y692235D1*
X1835855Y696153D1*
X1842472Y698594D1*
X1849475Y699423D1*
X2005241Y699330D1*
X2012158Y697954D1*
X2018562Y695002D1*
X2024100Y690636D1*
X2041710Y672896D1*
X2045628Y667032D1*
X2047432Y662674D1*
X2070726Y662327D1*
Y550272D1*
X1891742D1*
Y639422D1*
X1861850Y639370D1*
X1848488Y626009D1*
X1853297Y620251D1*
X1857568Y613281D1*
X1860696Y605729D1*
X1862604Y597781D1*
X1863245Y589633D1*
X1863085Y585546D1*
X1861564Y541723D2*
X1963245D1*
Y437542D1*
X1859064D1*
Y541723D1*
X1861564D1*
X958904Y1316264D2*
X978075Y1316215D1*
X980848Y1318159D1*
X983905Y1321738D1*
X1033779Y1371686D1*
Y1379841D1*
X954782Y1379823D1*
X957403Y1373969D1*
X958779Y1367052D1*
X958872Y1316309D1*
X1522111Y1437566D2*
X1522221Y1675095D1*
X1523092Y1680597D1*
X1524814Y1685895D1*
X1527343Y1690858D1*
X1530617Y1695365D1*
X1535237Y1700140D1*
X1527790Y1703756D1*
X1522585Y1707537D1*
X1518036Y1712087D1*
X1515435Y1715524D1*
X1504934Y1704954D1*
X1504842Y1326780D1*
X1504563Y1324432D1*
X1543488Y1363116D1*
X1543502Y1389001D1*
X1530617Y1402010D1*
X1527343Y1406517D1*
X1524814Y1411480D1*
X1523092Y1416778D1*
X1522221Y1422280D1*
X1522111Y1437566D1*
X1323686Y996290D2*
Y1044826D1*
X1318929Y1041420D1*
X1313197Y1038499D1*
X1307078Y1036511D1*
X1300723Y1035504D1*
X1294290D1*
X1287935Y1036511D1*
X1281211Y1038778D1*
X1323719Y996267D1*
X1240481Y1298319D2*
X1246343Y1294784D1*
X1251235Y1290606D1*
X1255868Y1285034D1*
X1334923Y1364095D1*
X1331710Y1369313D1*
X1329248Y1375257D1*
X1327746Y1381513D1*
X1327350Y1385175D1*
X1240460Y1298296D1*
X1398266Y1821794D2*
X1403099Y1826628D1*
X1404227Y1834768D1*
X1406215Y1840887D1*
X1409136Y1846619D1*
X1412918Y1851824D1*
X1417467Y1856373D1*
X1422672Y1860155D1*
X1428404Y1863076D1*
X1434523Y1865064D1*
X1438368Y1865773D1*
X1438373Y1887180D1*
X1430730Y1890109D1*
X1425245Y1893471D1*
X1420352Y1897649D1*
X1416174Y1902541D1*
X1412813Y1908027D1*
X1410351Y1913971D1*
X1408849Y1920227D1*
X1408344Y1926640D1*
X1408849Y1933054D1*
X1410351Y1939310D1*
X1412813Y1945254D1*
X1416174Y1950740D1*
X1420352Y1955632D1*
X1425245Y1959810D1*
X1430730Y1963172D1*
X1436674Y1965634D1*
X1442930Y1967136D1*
X1449344Y1967640D1*
X1455758Y1967136D1*
X1458187Y1966652D1*
X1458137Y1967678D1*
X1445258Y1980557D1*
X1437148Y1981655D1*
X1431029Y1983643D1*
X1425297Y1986564D1*
X1420092Y1990346D1*
X1415543Y1994895D1*
X1411761Y2000100D1*
X1408840Y2005832D1*
X1406852Y2011951D1*
X1405846Y2018305D1*
Y2024739D1*
X1406852Y2031094D1*
X1408840Y2037212D1*
X1411761Y2042945D1*
X1415543Y2048150D1*
X1420092Y2052699D1*
X1425297Y2056481D1*
X1431029Y2059401D1*
X1437148Y2061389D1*
X1443502Y2062396D1*
X1449936D1*
X1456290Y2061389D1*
X1462409Y2059401D1*
X1468142Y2056481D1*
X1473347Y2052699D1*
X1477896Y2048150D1*
X1481153Y2043729D1*
X1481103Y2049830D1*
X1449856Y2081077D1*
X1441741Y2082180D1*
X1435622Y2084168D1*
X1429890Y2087089D1*
X1424685Y2090871D1*
X1420136Y2095420D1*
X1416354Y2100625D1*
X1413433Y2106357D1*
X1411445Y2112476D1*
X1410439Y2118830D1*
Y2125264D1*
X1411445Y2131619D1*
X1413433Y2137737D1*
X1416354Y2143470D1*
X1420136Y2148675D1*
X1424685Y2153224D1*
X1430362Y2157270D1*
X1422973Y2165175D1*
X1419528Y2171328D1*
X1417613Y2178115D1*
X1417244Y2182808D1*
Y2193599D1*
X1412286Y2200100D1*
X1409365Y2205832D1*
X1407377Y2211951D1*
X1406370Y2218305D1*
X1406283Y2222515D1*
X1398241Y2214403D1*
Y1821776D1*
X1128084Y1621522D2*
D24*
X1167667Y1581939D1*
Y1661105D2*
X1128084Y1621522D1*
Y1521522D2*
X1167667Y1481939D1*
Y1561105D2*
X1088501Y1481939D1*
X1628084Y1521522D2*
X1667667Y1481939D1*
X1040265Y722593D2*
X1175984Y575066D1*
X1311703Y722593D2*
X1040265Y427539D1*
X925111Y1204432D2*
X1037094Y1100318D1*
Y1204432D2*
X981102Y1152375D1*
X1473372Y573097D2*
X1421315Y517105D1*
X1665659Y1170706D2*
X1705256Y1131109D1*
X1742091Y1167944D2*
X1705256Y1131109D1*
X1859099Y541688D2*
X1963211Y437576D1*
Y541688D2*
X1859099Y437576D1*
X1943832Y606299D2*
X1891775Y550307D1*
X2232591Y515178D2*
X2279134Y468635D1*
X2325677Y515178D2*
X2232591Y422093D1*
D26*
X1128084Y2821522D3*
Y2721522D3*
Y2621522D3*
Y2521522D3*
Y2421522D3*
Y2321522D3*
Y2221522D3*
Y2121522D3*
Y2021522D3*
Y1921522D3*
Y1821522D3*
Y1721522D3*
Y1621522D3*
Y1521522D3*
X1628084D3*
Y1621522D3*
Y1721522D3*
Y1821522D3*
Y1921522D3*
Y2021522D3*
Y2121522D3*
Y2221522D3*
Y2321522D3*
Y2421522D3*
Y2521522D3*
Y2621522D3*
Y2721522D3*
Y2821522D3*
D28*
X1086220Y838845D3*
X1265748D3*
D29*
X1175984Y575066D3*
D30*
X981102Y1077572D3*
Y1152375D3*
D31*
X1398569Y573097D3*
X1473372D3*
X1398569Y706168D3*
X1473372D3*
D81*
X1652363Y1078216D3*
X1705256Y1131109D3*
D33*
X1711155Y489633D3*
X1811155Y589633D3*
D34*
X1911155Y489633D3*
D31*
X1943832Y606299D3*
X2018635D3*
X925984Y1260236D3*
X1000787D3*
X2045538Y1189108D3*
X1970735D3*
X1397769Y838845D3*
X1472572D3*
D35*
X2279134Y468635D3*
X2082283D3*
D42*
X1727034Y983202D3*
X1592685Y848853D3*
M02*
