G04 DipTrace 3.0.0.1*
G04 BottomMask.gbr*
%MOIN*%
G04 #@! TF.FileFunction,Soldermask,Bot*
G04 #@! TF.Part,Single*
%AMOUTLINE1*
4,1,4,
0.002783,-0.044542,
-0.044542,0.002783,
-0.002783,0.044542,
0.044542,-0.002783,
0.002783,-0.044542,
0*%
%ADD50C,0.055874*%
%ADD61C,0.086614*%
%ADD63R,0.059055X0.059055*%
%ADD65C,0.059055*%
%ADD68R,0.059055X0.066929*%
%ADD70R,0.066929X0.059055*%
%ADD72R,0.226378X0.25*%
%ADD74R,0.047244X0.116142*%
%ADD76C,0.066929*%
%ADD82OUTLINE1*%
%FSLAX26Y26*%
G04*
G70*
G90*
G75*
G01*
G04 BotMask*
%LPD*%
D76*
X1128084Y2821522D3*
Y2721522D3*
Y2621522D3*
Y2521522D3*
Y2421522D3*
Y2321522D3*
Y2221522D3*
Y2121522D3*
Y2021522D3*
Y1921522D3*
Y1821522D3*
Y1721522D3*
Y1621522D3*
Y1521522D3*
X1628084D3*
Y1621522D3*
Y1721522D3*
Y1821522D3*
Y1921522D3*
Y2021522D3*
Y2121522D3*
Y2221522D3*
Y2321522D3*
Y2421522D3*
Y2521522D3*
Y2621522D3*
Y2721522D3*
Y2821522D3*
D74*
X1086220Y838845D3*
X1265748D3*
D72*
X1175984Y575066D3*
D70*
X981102Y1077572D3*
Y1152375D3*
D68*
X1398569Y573097D3*
X1473372D3*
X1398569Y706168D3*
X1473372D3*
D82*
X1652363Y1078216D3*
X1705256Y1131109D3*
D65*
X1711155Y489633D3*
X1811155Y589633D3*
D63*
X1911155Y489633D3*
D68*
X1943832Y606299D3*
X2018635D3*
X925984Y1260236D3*
X1000787D3*
X2045538Y1189108D3*
X1970735D3*
X1397769Y838845D3*
X1472572D3*
D61*
X2279134Y468635D3*
X2082283D3*
D50*
X1727034Y983202D3*
X1592685Y848853D3*
M02*
