M48
INCH
T01C0.015
T02C0.0276
T03C0.032
T04C0.0354
T05C0.0394
%
T01
X+008715Y+013777
X+006787Y+012172
X+006778Y+011104
X+007581Y+011104
X+009934Y+008329
X+009934Y+007965
X+011327Y+010097
X+011728Y+009911
X+012094Y+009570
X+012975Y+010764
X+012676Y+011310
X+012210Y+011286
X+012295Y+011825
X+011903Y+011797
X+012222Y+012616
X+013427Y+011594
X+013961Y+011068
X+013986Y+010656
X+013493Y+008912
X+015999Y+009133
X+016617Y+010020
X+018715Y+010248
X+019312Y+009654
X+017923Y+012117
X+018677Y+013155
X+016735Y+013640
X+016529Y+014060
X+016189Y+013878
X+014860Y+013028
X+013682Y+013879
X+015492Y+017387
X+014441Y+018252
X+014493Y+019266
X+014467Y+020215
X+014513Y+021220
X+014472Y+022215
X+014382Y+023753
X+014436Y+024740
X+012399Y+024749
X+021795Y+013521
X+021675Y+012472
X+015610Y+006059
X+013370Y+004605
X+011730Y+005773
X+009108Y+004668
X+005399Y+006172
T02
X+017112Y+004896
X+018112Y+005896
X+019112Y+004896
T03
X+017270Y+009832
X+015927Y+008489
T04
X+011281Y+028215
X+011281Y+027215
X+011281Y+026215
X+011281Y+025215
X+011281Y+024215
X+011281Y+023215
X+011281Y+022215
X+011281Y+021215
X+011281Y+020215
X+011281Y+019215
X+011281Y+018215
X+011281Y+017215
X+011281Y+016215
X+011281Y+015215
X+016281Y+015215
X+016281Y+016215
X+016281Y+017215
X+016281Y+018215
X+016281Y+019215
X+016281Y+020215
X+016281Y+021215
X+016281Y+022215
X+016281Y+023215
X+016281Y+024215
X+016281Y+025215
X+016281Y+026215
X+016281Y+027215
X+016281Y+028215
T05
X+022791Y+004686
X+020823Y+004686
T00
M30
