G04 DipTrace 3.0.0.1*
G04 Top.gbr*
%MOIN*%
G04 #@! TF.FileFunction,Copper,L1,Top*
G04 #@! TF.Part,Single*
%AMOUTLINE3*
4,1,4,
-0.032014,0.018096,
-0.018096,0.032014,
0.032014,-0.018096,
0.018096,-0.032014,
-0.032014,0.018096,
0*%
%AMOUTLINE6*
4,1,4,
-0.018096,-0.032014,
-0.032014,-0.018096,
0.018096,0.032014,
0.032014,0.018096,
-0.018096,-0.032014,
0*%
G04 #@! TA.AperFunction,Conductor*
%ADD14C,0.007*%
%ADD15C,0.015748*%
%ADD16C,0.02*%
G04 #@! TA.AperFunction,CopperBalancing*
%ADD17C,0.025*%
G04 #@! TA.AperFunction,Conductor*
%ADD21C,0.018*%
%ADD22C,0.012*%
%ADD23C,0.015*%
G04 #@! TA.AperFunction,ComponentPad*
%ADD26C,0.059055*%
%ADD30R,0.059055X0.051181*%
%ADD31R,0.051181X0.059055*%
%ADD32R,0.023622X0.07874*%
G04 #@! TA.AperFunction,ComponentPad*
%ADD33C,0.051181*%
%ADD34R,0.051181X0.051181*%
%ADD35C,0.07874*%
%ADD37R,0.015748X0.070866*%
%ADD38R,0.015748X0.05315*%
%ADD39R,0.082677X0.07874*%
%ADD40R,0.062992X0.074803*%
%ADD41R,0.047244X0.074803*%
G04 #@! TA.AperFunction,ComponentPad*
%ADD42C,0.048*%
G04 #@! TA.AperFunction,ViaPad*
%ADD43C,0.029*%
%ADD84OUTLINE3*%
%ADD87OUTLINE6*%
%FSLAX26Y26*%
G04*
G70*
G90*
G75*
G01*
G04 Top*
%LPD*%
X687533Y570997D2*
D14*
Y601072D1*
X681738Y606867D1*
Y618067D1*
Y651841D1*
X667597Y665982D1*
X534526D1*
X521268Y679240D1*
Y966902D1*
X522045Y967678D1*
X522039Y981780D1*
X527833Y987576D1*
X527822Y1026509D1*
X661942Y570997D2*
Y601072D1*
X667738Y606867D1*
Y618067D1*
Y646042D1*
X661798Y651982D1*
X528727D1*
X507268Y673441D1*
Y972701D1*
X508042Y973475D1*
X508039Y981774D1*
X502243Y987568D1*
X502231Y1026501D1*
X834908Y1309974D2*
Y1359974D1*
X853806Y1378871D1*
X870341D1*
X871522Y1377690D1*
X732546Y1309974D2*
Y1253412D1*
X762992Y1222966D1*
X929265D1*
X956562Y1195669D1*
Y1159843D1*
X1069816Y1046588D1*
Y959186D1*
X1206037Y822966D1*
X1332152D1*
X1389501Y765617D1*
Y476115D1*
X1413911Y451706D1*
X1469685D1*
X1471391Y453412D1*
X713123Y570997D2*
D15*
Y607572D1*
D16*
Y628740D1*
X733071Y648688D1*
X770079D1*
X812861Y691470D1*
Y754724D1*
X814436Y756299D1*
D17*
Y759186D1*
X919685D1*
X993438Y832940D1*
X814436Y756299D2*
D16*
X946588D1*
X1003150Y812861D1*
Y795144D1*
X964173Y756168D1*
X953150D1*
X993438Y796457D1*
X630184Y1026509D2*
D14*
Y1147113D1*
X638583Y1155512D1*
X920210D1*
X993438Y1082283D1*
Y832940D1*
X809318Y1309974D2*
Y1262861D1*
X826115Y1246063D1*
X948031D1*
X978084Y1216010D1*
Y1168635D1*
X1087008Y1059711D1*
Y977822D1*
X1220341Y844488D1*
X1403806D1*
X1594488Y653806D1*
Y531759D1*
X1596325Y529921D1*
X622047Y846850D2*
Y912336D1*
X635171Y925459D1*
X690945D1*
X706562Y941076D1*
Y1026115D1*
X706955Y1026509D1*
X696850Y846850D2*
Y717698D1*
X697094Y717454D1*
X696850Y846850D2*
X751312D1*
X766535Y831627D1*
X813911D1*
X814436Y831102D1*
X1727034Y983202D2*
X1721522D1*
X1696063Y957743D1*
X1661201D1*
X1558987Y1059957D1*
X1592685Y848853D2*
X1593866D1*
X1652362Y907349D1*
Y922039D1*
X1536715Y1037686D1*
X1514445Y1377320D2*
Y1379799D1*
X1577165Y1442520D1*
Y1670604D1*
X1628084Y1721522D1*
X1930906Y1319094D2*
X1871325D1*
X1867717Y1315486D1*
X1581257Y1082228D2*
X1581420D1*
X1661680Y1001969D1*
X1174811Y1310507D2*
D22*
Y1309047D1*
X1222244Y1261614D1*
X1241623Y1015415D2*
D23*
Y1013802D1*
X1212730Y984908D1*
Y960367D1*
X1209383Y957021D1*
X2082283Y468635D2*
D14*
X2043438D1*
X1995276Y420472D1*
X1780315D1*
X1711155Y489633D1*
X1803806D1*
X1873228Y559055D1*
Y629528D1*
X1833333Y669423D1*
X1639370D1*
X1378871Y929921D1*
Y953281D1*
X1322966Y1009186D1*
Y1110105D1*
X1304987Y1128084D1*
Y1224873D1*
X1197081Y1332778D1*
X1811155Y589633D2*
X1709055D1*
X1665748Y546325D1*
Y472047D1*
X1645538Y451837D1*
X1599606D1*
X1596325Y455118D1*
X2203281Y617323D2*
X2092913D1*
X622291Y717454D2*
X576640D1*
X567323Y726772D1*
Y915354D1*
X593045Y941076D1*
X671654D1*
X680840Y950262D1*
Y1025984D1*
X681365Y1026509D1*
X2203150Y758924D2*
X2098163D1*
X2097507Y759580D1*
X2205512Y894619D2*
X2095013D1*
X2094226Y895407D1*
X1930906Y1027756D2*
X1980906D1*
X2030906D1*
X2080906D1*
X500525Y465682D2*
D23*
Y518832D1*
X539895Y558202D1*
X823360Y465682D2*
Y518832D1*
X783990Y558202D1*
X2280315Y894619D2*
D14*
Y761286D1*
X2277953Y758924D1*
Y617454D1*
X2278084Y617323D1*
Y469685D1*
X2279134Y468635D1*
X2080906Y1027756D2*
X2250197D1*
X2281890Y996063D1*
Y896194D1*
X2280315Y894619D1*
X823360Y465682D2*
Y417454D1*
X818373Y412467D1*
X506168D1*
X501181Y417454D1*
Y465026D1*
X500525Y465682D1*
X539895Y558202D2*
D16*
X597966D1*
D15*
X610761Y570997D1*
X1980906Y1319094D2*
D14*
Y1027756D1*
X1930906D2*
D23*
X1931234Y965420D1*
X1536715Y1355049D2*
D14*
X1538907D1*
D23*
X1629003Y1445144D1*
Y1520604D1*
D14*
X1628084Y1521522D1*
X1241623Y1377320D2*
X1219353Y1355050D1*
Y1355049D1*
X1241623Y1377320D2*
X1243677D1*
X1342651Y1278346D1*
Y1159449D1*
X1485958Y1302756D2*
Y1304291D1*
X1536715Y1355049D1*
X539895Y558202D2*
D16*
Y617192D1*
X610761Y570997D2*
D15*
Y619291D1*
D21*
X541995D1*
X539895Y617192D1*
X579003Y1026509D2*
D14*
Y973885D1*
X590420Y962467D1*
X647244D1*
X656693Y971916D1*
Y1025591D1*
X655774Y1026509D1*
X681365Y1309974D2*
Y1219816D1*
X678740Y1217192D1*
X677822Y1110367D2*
Y1104724D1*
X657349Y1084252D1*
Y1028084D1*
X655774Y1026509D1*
X758136D2*
Y1110367D1*
Y1026509D2*
X783727D1*
X1145538Y738058D2*
Y604724D1*
X1172966Y577297D1*
X823360Y465682D2*
X909646D1*
X910761Y466798D1*
X1930906Y1027756D2*
Y1184055D1*
X1888189Y1226772D1*
X1807349D1*
X1792257Y1211680D1*
X1514445Y1015415D2*
Y1015083D1*
X1599869Y929659D1*
Y913255D1*
X1219353Y1037686D2*
Y1037594D1*
X1172835Y991076D1*
X1220341Y738058D2*
X1318635D1*
X1337008Y719685D1*
Y460499D1*
X2018110Y617323D2*
Y634252D1*
X1779003Y873360D1*
X1708924D1*
X1598819Y763255D1*
X1582415D1*
X1542388Y803281D1*
Y883333D1*
X1551050Y891995D1*
Y934268D1*
X1492173Y993144D1*
X2022703Y759580D2*
X1945669D1*
X1781759Y923491D1*
Y987927D1*
X1732546Y1037139D1*
X1670888D1*
X1603529Y1104499D1*
X2019423Y895407D2*
X1901575D1*
X1735302Y1061680D1*
X1690891D1*
X1625801Y1126770D1*
X1492173Y1399591D2*
X1492766D1*
X1525984Y1432808D1*
Y1510761D1*
X1463353Y1573392D1*
X1420440D1*
X1401969Y1591864D1*
Y2710630D1*
X1290682Y2821916D1*
X1128478D1*
X1128084Y2821522D1*
Y2721522D2*
X1307743D1*
X1385564Y2643701D1*
Y1561417D1*
X1391995Y1554987D1*
X1448950D1*
X1504856Y1499081D1*
Y1452756D1*
X1473962Y1421862D1*
X1469903D1*
X1128084Y2621522D2*
X1320210D1*
X1366273Y2575459D1*
Y1549738D1*
X1381365Y1534646D1*
X1444751D1*
X1458793Y1520604D1*
Y1499837D1*
X1425360Y1466404D1*
X1330709D2*
Y1466667D1*
X1347244Y1483202D1*
Y2476772D1*
X1301837Y2522178D1*
X1128740D1*
X1128084Y2521522D1*
Y2421522D2*
X1289239D1*
X1329790Y2380971D1*
Y1564567D1*
X1280315Y1515092D1*
X1279396D1*
X1264961Y1500656D1*
Y1487609D1*
X1308437Y1444133D1*
X1286165Y1421862D2*
Y1426433D1*
X1249869Y1462730D1*
Y1508399D1*
X1312336Y1570866D1*
Y2270341D1*
X1259449Y2323228D1*
X1129790D1*
X1128084Y2321522D1*
X1263895Y1399591D2*
Y1400016D1*
X1233858Y1430052D1*
Y1515092D1*
X1295538Y1576772D1*
Y2174803D1*
X1248556Y2221785D1*
X1128346D1*
X1128084Y2221522D1*
Y2121522D2*
X1239764D1*
X1277690Y2083596D1*
Y1582021D1*
X1217060Y1521391D1*
Y1437402D1*
X1116142Y1336483D1*
Y1324634D1*
X1152539Y1288236D1*
X1128084Y2021522D2*
X1207218D1*
X1260367Y1968373D1*
Y1589239D1*
X1201312Y1530184D1*
Y1449475D1*
X1082021Y1330184D1*
Y1314211D1*
X1130268Y1265965D1*
X1128084Y1921522D2*
X1194226D1*
X1242782Y1872966D1*
Y1594488D1*
X1186352Y1538058D1*
Y1463386D1*
X1053281Y1330315D1*
Y1298409D1*
X1107997Y1243693D1*
X1128084Y1821522D2*
X1192126D1*
X1223753Y1789895D1*
Y1600131D1*
X1171916Y1548294D1*
Y1475722D1*
X1037008Y1340814D1*
Y1220031D1*
X1107997Y1149042D1*
X1130268Y1126770D2*
X1137400D1*
X1190289Y1179659D1*
X1444094Y1825197D2*
X1628084D1*
Y1821522D1*
X1152539Y1104499D2*
Y1105558D1*
X1229528Y1182546D1*
X1449344Y1926640D2*
X1622966D1*
X1628084Y1921522D1*
X1174811Y1082228D2*
Y1082423D1*
X1220997Y1128609D1*
X1446719Y2021522D2*
X1628084D1*
X1197081Y1059957D2*
Y1060467D1*
X1267585Y1130971D1*
X1451312Y2122047D2*
X1627559D1*
X1628084Y2121522D1*
Y2221522D2*
X1447244D1*
X1297507Y1076378D2*
Y1026756D1*
X1263895Y993144D1*
X1286165Y970873D2*
X1283734D1*
X1235696Y922835D1*
X1211286D1*
X1201312Y932808D1*
X1188845D1*
X1134252Y987402D1*
Y1008136D1*
X1132677Y1009711D1*
X1308437Y948601D2*
Y947676D1*
X1237008Y876247D1*
X1214042D1*
X1101181Y989108D1*
Y1068898D1*
X1000000Y1170079D1*
Y1329921D1*
X1084514Y1414436D1*
Y2459711D1*
X1098163Y2473360D1*
X1238320D1*
X1239895Y2474934D1*
X1443570Y2474016D2*
X1575591D1*
X1628084Y2421522D1*
X1349344Y891207D2*
Y907696D1*
X1330709Y926331D1*
X1368241Y1387927D2*
Y1102362D1*
X1356840Y1090961D1*
Y1001559D1*
X1425360Y933039D1*
Y926331D1*
X1628084Y2721522D2*
X1661549D1*
X1677822Y2705249D1*
Y1430971D1*
X1652887Y1406037D1*
X1396063Y1106824D2*
Y1104987D1*
X1370079Y1079003D1*
Y1026154D1*
X1447631Y948601D1*
X1628084Y2821522D2*
X1675328D1*
X1693570Y2803281D1*
Y1384121D1*
X1673491Y1364042D1*
X1398556Y1065617D2*
Y1042219D1*
X1469903Y970873D1*
X1581257Y1310507D2*
X1580192D1*
X1540682Y1270997D1*
Y1250000D1*
X1592257Y1198425D1*
X1697900D1*
X1871522Y1024803D1*
X1561024Y605906D2*
Y582677D1*
X1529790Y551444D1*
Y531890D1*
X1519554Y521654D1*
X1477953D1*
X1471391Y528215D1*
X2030906Y1319094D2*
Y1369882D1*
X2017979Y1382808D1*
X1768110D1*
X1698425Y1313123D1*
X1672959D1*
X1625801Y1265965D1*
X2167454Y1247244D2*
Y1282415D1*
X2117848Y1332021D1*
X2093832D1*
X2080906Y1319094D1*
X1603529Y1288236D2*
X1604115D1*
X1635564Y1319685D1*
X1657480D1*
X1672047Y1334252D1*
X1695538D1*
X1759580Y1398294D1*
X2133333D1*
X2179528Y1352100D1*
X1558987Y1332778D2*
Y1334184D1*
X1612598Y1387795D1*
X1618898D1*
X1549213Y1738714D2*
X1465617D1*
X1419291Y1785039D1*
Y2356430D1*
X1438189Y2375328D1*
D43*
X871522Y1377690D3*
X993438Y832940D3*
Y796457D3*
Y832940D3*
X1867717Y1315486D3*
X1661680Y1001969D3*
X1222244Y1261614D3*
X1209383Y957021D3*
X1931234Y965420D3*
X1342651Y1159449D3*
X1485958Y1302756D3*
X539895Y617192D3*
X678740Y1217192D3*
X677822Y1110367D3*
X758136D3*
D3*
X1931234Y965420D3*
X1172966Y577297D3*
X910761Y466798D3*
X1792257Y1211680D3*
X539895Y617192D3*
X1599869Y913255D3*
X1931234Y965420D3*
X910761Y466798D3*
X539895Y617192D3*
X1172835Y991076D3*
X1337008Y460499D3*
X1190289Y1179659D3*
X1444094Y1825197D3*
X1229528Y1182546D3*
X1449344Y1926640D3*
X1220997Y1128609D3*
X1446719Y2021522D3*
X1267585Y1130971D3*
X1451312Y2122047D3*
X1447244Y2221522D3*
X1297507Y1076378D3*
X1132677Y1009711D3*
X1239895Y2474934D3*
X1443570Y2474016D3*
X1349344Y891207D3*
X1368241Y1387927D3*
X1652887Y1406037D3*
X1396063Y1106824D3*
X1673491Y1364042D3*
X1398556Y1065617D3*
X1871522Y1024803D3*
X1561024Y605906D3*
X2167454Y1247244D3*
X2179528Y1352100D3*
X1618898Y1387795D3*
X1549213Y1738714D3*
X1438189Y2375328D3*
X1345883Y2811647D2*
D17*
X1570424D1*
X1174546Y2786778D2*
X1280874D1*
X1370737D2*
X1581606D1*
X1169419Y2761909D2*
X1305776D1*
X1395639D2*
X1586733D1*
X1420493Y2737041D2*
X1571743D1*
X1434409Y2712172D2*
X1570327D1*
X1174936Y2687303D2*
X1297036D1*
X1434458D2*
X1581215D1*
X1168881Y2662434D2*
X1321889D1*
X1434458D2*
X1587319D1*
X1434458Y2637566D2*
X1571889D1*
X1434458Y2612697D2*
X1570278D1*
X1175327Y2587828D2*
X1308999D1*
X1434458D2*
X1580825D1*
X1168296Y2562959D2*
X1333754D1*
X1434458D2*
X1587856D1*
X1434458Y2538091D2*
X1572085D1*
X1458042Y2513222D2*
X1570180D1*
X1281137Y2488353D2*
X1290759D1*
X1281772Y2463484D2*
X1314760D1*
X1466733Y2438615D2*
X1566079D1*
X1455014Y2413747D2*
X1570083D1*
X1176108Y2388878D2*
X1276967D1*
X1479379D2*
X1580044D1*
X1167124Y2364009D2*
X1297280D1*
X1480112D2*
X1589077D1*
X1288462Y2339140D2*
X1297257D1*
X1459946D2*
X1572378D1*
X1451792Y2314272D2*
X1570034D1*
X1176499Y2289403D2*
X1248354D1*
X1451792D2*
X1579653D1*
X1166489Y2264534D2*
X1273208D1*
X1451792D2*
X1589663D1*
X1176840Y2189928D2*
X1235463D1*
X1475864D2*
X1579311D1*
X1165854Y2165059D2*
X1260366D1*
X1451792D2*
X1590297D1*
X1177231Y2090453D2*
X1225893D1*
X1479965D2*
X1578969D1*
X1165171Y2065584D2*
X1245180D1*
X1451792D2*
X1590981D1*
X1232944Y2040715D2*
X1245180D1*
X1177573Y1990978D2*
X1192837D1*
X1476547D2*
X1578628D1*
X1164536Y1966109D2*
X1217690D1*
X1462924D2*
X1591665D1*
X1219419Y1941240D2*
X1227892D1*
X1472983Y1891503D2*
X1578286D1*
X1163803Y1866634D2*
X1204165D1*
X1451792D2*
X1592348D1*
X1470688Y1792028D2*
X1577944D1*
X1163071Y1767159D2*
X1191274D1*
X1581235D2*
X1593081D1*
X1182602Y1742290D2*
X1191274D1*
X1434458Y1717421D2*
X1442005D1*
X1178549Y1692552D2*
X1191274D1*
X1434458D2*
X1554165D1*
X1162338Y1667684D2*
X1191274D1*
X1434458D2*
X1544643D1*
X1182407Y1642815D2*
X1191274D1*
X1434458D2*
X1544643D1*
X1434458Y1617946D2*
X1544643D1*
X1488608Y1593077D2*
X1544643D1*
X1513462Y1568209D2*
X1544643D1*
X433725Y1369259D2*
X465346D1*
X914145D2*
X994399D1*
X1407260D2*
X1432631D1*
X2219272D2*
X2322182D1*
X433725Y1344390D2*
X465346D1*
X897934D2*
X971206D1*
X1321518D2*
X1335753D1*
X1400717D2*
X1457973D1*
X1774594D2*
X1836147D1*
X2222299D2*
X2322182D1*
X433725Y1319521D2*
X465346D1*
X871762D2*
X967495D1*
X1400717D2*
X1446059D1*
X1749741D2*
X1824428D1*
X2206919D2*
X2322182D1*
X433725Y1294652D2*
X465346D1*
X871762D2*
X967495D1*
X1400717D2*
X1443276D1*
X1724887D2*
X1829897D1*
X2197348D2*
X2322182D1*
X433725Y1269783D2*
X465346D1*
X1400717D2*
X1459096D1*
X1707846D2*
X1890102D1*
X2121713D2*
X2130727D1*
X2204184D2*
X2322182D1*
X433725Y1244915D2*
X646010D1*
X1400717D2*
X1508608D1*
X1703012D2*
X1765737D1*
X1914975D2*
X1948403D1*
X2013413D2*
X2124038D1*
X2210874D2*
X2322182D1*
X433725Y1220046D2*
X635317D1*
X1199853D2*
X1210489D1*
X1248618D2*
X1264922D1*
X1400717D2*
X1525698D1*
X1721176D2*
X1749624D1*
X1939829D2*
X1948430D1*
X2013413D2*
X2134292D1*
X2200620D2*
X2322182D1*
X433725Y1195177D2*
X641665D1*
X715805D2*
X749184D1*
X1400717D2*
X1550600D1*
X1832309D2*
X1874868D1*
X2013413D2*
X2322182D1*
X433725Y1170308D2*
X608462D1*
X1400717D2*
X1579262D1*
X1770932D2*
X1898403D1*
X2013413D2*
X2322182D1*
X433725Y1145440D2*
X597671D1*
X1412338D2*
X1554360D1*
X1795835D2*
X1898403D1*
X2013413D2*
X2322182D1*
X433725Y1120571D2*
X597671D1*
X800327D2*
X910219D1*
X1437192D2*
X1529506D1*
X1706967D2*
X1730825D1*
X1820688D2*
X1898403D1*
X2013413D2*
X2322182D1*
X433725Y1095702D2*
X597671D1*
X798911D2*
X935073D1*
X1438022D2*
X1504702D1*
X1701792D2*
X1755678D1*
X1845542D2*
X1898403D1*
X2013413D2*
X2322182D1*
X433725Y1070833D2*
X465346D1*
X871762D2*
X959975D1*
X1441733D2*
X1480385D1*
X1771079D2*
X1780581D1*
X1870395D2*
X1890102D1*
X2121713D2*
X2322182D1*
X433725Y1045965D2*
X465346D1*
X871762D2*
X960952D1*
X1439731D2*
X1455141D1*
X1795932D2*
X1805434D1*
X2276938D2*
X2322182D1*
X433725Y1021096D2*
X465346D1*
X871762D2*
X960952D1*
X1025962D2*
X1037287D1*
X2301792D2*
X2322182D1*
X433725Y996227D2*
X465346D1*
X871762D2*
X960952D1*
X1025962D2*
X1037287D1*
X2121713D2*
X2236782D1*
X2314389D2*
X2322176D1*
X433725Y971358D2*
X465346D1*
X871762D2*
X960952D1*
X1025962D2*
X1037287D1*
X1870542D2*
X1888149D1*
X2121713D2*
X2249379D1*
X2314389D2*
X2322176D1*
X433725Y946490D2*
X474770D1*
X739047D2*
X960952D1*
X1025962D2*
X1040133D1*
X433725Y921621D2*
X474770D1*
X731919D2*
X960952D1*
X1025962D2*
X1062465D1*
X1510727D2*
X1518515D1*
X1684848D2*
X1749331D1*
X433725Y896752D2*
X474770D1*
X751450D2*
X960952D1*
X1025962D2*
X1087319D1*
X1485825D2*
X1513051D1*
X433725Y871883D2*
X474770D1*
X872983D2*
X960952D1*
X1025962D2*
X1112172D1*
X1481821D2*
X1509878D1*
X433725Y847014D2*
X474770D1*
X872983D2*
X949868D1*
X1034458D2*
X1137075D1*
X1903159D2*
X1964809D1*
X433725Y822146D2*
X474770D1*
X872983D2*
X924965D1*
X1040952D2*
X1161928D1*
X1702622D2*
X1785268D1*
X1928012D2*
X2247817D1*
X433725Y797277D2*
X474770D1*
X1042172D2*
X1188051D1*
X1677768D2*
X1810171D1*
X1952915D2*
X1968129D1*
X433725Y772408D2*
X474770D1*
X1034213D2*
X1090932D1*
X1274936D2*
X1337807D1*
X1421225D2*
X1431006D1*
X1652915D2*
X1835024D1*
X433725Y747539D2*
X474770D1*
X1009653D2*
X1090932D1*
X1422006D2*
X1455825D1*
X1628012D2*
X1859878D1*
X433725Y722671D2*
X474770D1*
X981186D2*
X1090932D1*
X1422006D2*
X1480678D1*
X1631040D2*
X1884780D1*
X433725Y697802D2*
X474770D1*
X751694D2*
X765096D1*
X851840D2*
X1090932D1*
X1274936D2*
X1304506D1*
X1422006D2*
X1505581D1*
X1845542D2*
X1909633D1*
X1999497D2*
X2245473D1*
X433725Y672933D2*
X474770D1*
X846811D2*
X1113051D1*
X1178061D2*
X1304506D1*
X1422006D2*
X1530434D1*
X1874741D2*
X1934487D1*
X433725Y648064D2*
X487710D1*
X823569D2*
X1113051D1*
X1178061D2*
X1304506D1*
X1422006D2*
X1555288D1*
X1899301D2*
X1959389D1*
X433725Y623196D2*
X469546D1*
X854331D2*
X1113051D1*
X1178061D2*
X1304506D1*
X1422006D2*
X1521352D1*
X1626987D2*
X1768813D1*
X1905747D2*
X1963540D1*
X433725Y598327D2*
X469546D1*
X854331D2*
X1113735D1*
X1210678D2*
X1304506D1*
X1422006D2*
X1518227D1*
X1626987D2*
X1672817D1*
X1905747D2*
X1963540D1*
X433725Y573458D2*
X469546D1*
X854331D2*
X1129653D1*
X1216294D2*
X1304506D1*
X1905747D2*
X1963540D1*
X433725Y548589D2*
X469546D1*
X854331D2*
X1141176D1*
X1204721D2*
X1304506D1*
X1712924D2*
X1776577D1*
X1903842D2*
X2245571D1*
X2310581D2*
X2322243D1*
X883872Y523720D2*
X1304506D1*
X1753061D2*
X1792983D1*
X1965756D2*
X2043667D1*
X2120883D2*
X2240493D1*
X938803Y498852D2*
X1304506D1*
X1965756D2*
X2021254D1*
X2143296D2*
X2218081D1*
X953647Y473983D2*
X1295766D1*
X1529917D2*
X1537798D1*
X1833090D2*
X1856557D1*
X1965756D2*
X2003872D1*
X2150424D2*
X2211001D1*
X950229Y449114D2*
X1295131D1*
X1529917D2*
X1537798D1*
X2147690D2*
X2213735D1*
X1175636Y2791919D2*
X1170688Y2785135D1*
X1164471Y2778919D1*
X1157358Y2773751D1*
X1153520Y2771443D1*
X1161016Y2766850D1*
X1167701Y2761140D1*
X1173411Y2754454D1*
X1175368Y2751525D1*
X1310097Y2751430D1*
X1317013Y2750054D1*
X1321371Y2748248D1*
X1310045Y2760127D1*
X1278182Y2791916D1*
X1175692D1*
X1175368Y2691519D2*
X1170688Y2685135D1*
X1164471Y2678919D1*
X1157358Y2673751D1*
X1153520Y2671443D1*
X1161016Y2666850D1*
X1167701Y2661140D1*
X1173411Y2654454D1*
X1175368Y2651525D1*
X1322564Y2651430D1*
X1329481Y2650054D1*
X1335885Y2647102D1*
X1341423Y2642736D1*
X1355545Y2628614D1*
X1355512Y2631326D1*
X1295243Y2691522D1*
X1175370D1*
X1175368Y2591519D2*
X1170688Y2585135D1*
X1164471Y2578919D1*
X1157358Y2573751D1*
X1153520Y2571443D1*
X1161016Y2566850D1*
X1167701Y2561140D1*
X1173411Y2554454D1*
X1174929Y2552183D1*
X1304191Y2552086D1*
X1311108Y2550710D1*
X1317512Y2547758D1*
X1323050Y2543392D1*
X1336274Y2530168D1*
X1336221Y2563085D1*
X1307710Y2591522D1*
X1175435D1*
X1175368Y2391519D2*
X1170688Y2385135D1*
X1164471Y2378919D1*
X1157358Y2373751D1*
X1153520Y2371443D1*
X1161016Y2366850D1*
X1167701Y2361140D1*
X1173411Y2354454D1*
X1174223Y2353240D1*
X1261803Y2353136D1*
X1268719Y2351760D1*
X1275124Y2348808D1*
X1280662Y2344442D1*
X1299824Y2325279D1*
X1299738Y2368597D1*
X1276739Y2391522D1*
X1175420D1*
X1176401Y2293223D2*
X1170688Y2285135D1*
X1164471Y2278919D1*
X1157358Y2273751D1*
X1153520Y2271443D1*
X1161016Y2266850D1*
X1167701Y2261140D1*
X1173411Y2254454D1*
X1175197Y2251783D1*
X1250910Y2251692D1*
X1257827Y2250317D1*
X1264231Y2247364D1*
X1269770Y2242998D1*
X1282303Y2230465D1*
X1282284Y2257967D1*
X1246949Y2293228D1*
X1176490D1*
X1175540Y2191776D2*
X1170688Y2185135D1*
X1164471Y2178919D1*
X1157358Y2173751D1*
X1153520Y2171443D1*
X1161016Y2166850D1*
X1167701Y2161140D1*
X1173411Y2154454D1*
X1175368Y2151525D1*
X1242118Y2151430D1*
X1249034Y2150054D1*
X1255439Y2147102D1*
X1260977Y2142736D1*
X1265569Y2138144D1*
X1265486Y2162429D1*
X1236056Y2191785D1*
X1175558D1*
X1175368Y2091519D2*
X1170688Y2085135D1*
X1164471Y2078919D1*
X1157358Y2073751D1*
X1153520Y2071443D1*
X1161016Y2066850D1*
X1167701Y2061140D1*
X1173411Y2054454D1*
X1175368Y2051525D1*
X1209572Y2051430D1*
X1216488Y2050054D1*
X1222893Y2047102D1*
X1228431Y2042736D1*
X1247663Y2023504D1*
X1247638Y2071221D1*
X1227264Y2091522D1*
X1175359D1*
X1175368Y1991519D2*
X1170688Y1985135D1*
X1164471Y1978919D1*
X1157358Y1973751D1*
X1153520Y1971443D1*
X1161016Y1966850D1*
X1167701Y1961140D1*
X1173411Y1954454D1*
X1175368Y1951525D1*
X1196579Y1951430D1*
X1203496Y1950054D1*
X1209901Y1947102D1*
X1215439Y1942736D1*
X1230389Y1927785D1*
X1230315Y1955998D1*
X1194718Y1991522D1*
X1175431D1*
X1175368Y1891519D2*
X1170688Y1885135D1*
X1164471Y1878919D1*
X1157358Y1873751D1*
X1153520Y1871443D1*
X1161016Y1866850D1*
X1167701Y1861140D1*
X1173411Y1854454D1*
X1175368Y1851525D1*
X1194480Y1851430D1*
X1201397Y1850054D1*
X1207801Y1847102D1*
X1211616Y1844328D1*
X1212782Y1844488D1*
X1212730Y1860591D1*
X1181726Y1891522D1*
X1175427D1*
X1175368Y1791519D2*
X1170688Y1785135D1*
X1164471Y1778919D1*
X1157358Y1773751D1*
X1153520Y1771443D1*
X1161016Y1766850D1*
X1167701Y1761140D1*
X1173411Y1754454D1*
X1178005Y1746958D1*
X1181369Y1738836D1*
X1183422Y1730287D1*
X1184112Y1721522D1*
X1183422Y1712758D1*
X1181369Y1704209D1*
X1178005Y1696086D1*
X1173411Y1688590D1*
X1167701Y1681905D1*
X1161016Y1676195D1*
X1153348Y1671522D1*
X1161016Y1666850D1*
X1167701Y1661140D1*
X1173411Y1654454D1*
X1178005Y1646958D1*
X1181369Y1638836D1*
X1183422Y1630287D1*
X1184112Y1621522D1*
X1183422Y1612758D1*
X1181369Y1604209D1*
X1178616Y1597413D1*
X1193753Y1612631D1*
X1193701Y1777521D1*
X1179626Y1791522D1*
X1175378D1*
X1585448Y1757869D2*
X1591697Y1764126D1*
X1598810Y1769294D1*
X1602648Y1771601D1*
X1595152Y1776195D1*
X1588467Y1781905D1*
X1582757Y1788590D1*
X1578658Y1795202D1*
X1472078Y1795197D1*
X1465517Y1790239D1*
X1459537Y1787226D1*
X1478117Y1768714D1*
X1521232D1*
X1527790Y1773672D1*
X1533523Y1776593D1*
X1539641Y1778581D1*
X1545996Y1779588D1*
X1552429D1*
X1558784Y1778581D1*
X1564903Y1776593D1*
X1570635Y1773672D1*
X1575840Y1769891D1*
X1580389Y1765341D1*
X1584171Y1760136D1*
X1585443Y1757865D1*
X1583342Y1855197D2*
X1588467Y1861140D1*
X1595152Y1866850D1*
X1602820Y1871522D1*
X1595152Y1876195D1*
X1588467Y1881905D1*
X1582757Y1888590D1*
X1577911Y1896633D1*
X1477312Y1896640D1*
X1470766Y1891682D1*
X1465034Y1888761D1*
X1458915Y1886773D1*
X1452561Y1885767D1*
X1449281Y1885643D1*
X1449291Y1865854D1*
X1456764Y1864190D1*
X1462708Y1861728D1*
X1468194Y1858367D1*
X1471987Y1855204D1*
X1583303Y1855197D1*
X1584470Y1956627D2*
X1588467Y1961140D1*
X1595152Y1966850D1*
X1602820Y1971522D1*
X1595152Y1976195D1*
X1588467Y1981905D1*
X1582757Y1988590D1*
X1580800Y1991519D1*
X1474617Y1991522D1*
X1468142Y1986564D1*
X1462409Y1983643D1*
X1456290Y1981655D1*
X1449295Y1980624D1*
X1449344Y1967640D1*
X1455758Y1967136D1*
X1462014Y1965634D1*
X1467957Y1963172D1*
X1473443Y1959810D1*
X1477236Y1956648D1*
X1584451Y1956640D1*
X1580800Y2051525D2*
X1585480Y2057909D1*
X1591697Y2064126D1*
X1598810Y2069294D1*
X1602648Y2071601D1*
X1595152Y2076195D1*
X1588467Y2081905D1*
X1582757Y2088590D1*
X1580456Y2092034D1*
X1479268Y2092047D1*
X1472735Y2087089D1*
X1467002Y2084168D1*
X1460884Y2082180D1*
X1454529Y2081174D1*
X1449289Y2081127D1*
X1449291Y2062436D1*
X1456290Y2061389D1*
X1462409Y2059401D1*
X1468142Y2056481D1*
X1474612Y2051529D1*
X1580752Y2051522D1*
X1581143Y2152040D2*
X1585480Y2157909D1*
X1591697Y2164126D1*
X1598810Y2169294D1*
X1602648Y2171601D1*
X1595152Y2176195D1*
X1588467Y2181905D1*
X1582757Y2188590D1*
X1580800Y2191519D1*
X1475203Y2191522D1*
X1468667Y2186564D1*
X1462934Y2183643D1*
X1456815Y2181655D1*
X1449292Y2180603D1*
X1449291Y2163022D1*
X1457726Y2162542D1*
X1463982Y2161041D1*
X1469926Y2158579D1*
X1475412Y2155217D1*
X1479205Y2152054D1*
X1581146Y2152047D1*
X1580800Y2251525D2*
X1585480Y2257909D1*
X1591697Y2264126D1*
X1598810Y2269294D1*
X1602648Y2271601D1*
X1595152Y2276195D1*
X1588467Y2281905D1*
X1582757Y2288590D1*
X1578163Y2296086D1*
X1574799Y2304209D1*
X1572746Y2312758D1*
X1572056Y2321522D1*
X1572746Y2330287D1*
X1574799Y2338836D1*
X1578163Y2346958D1*
X1582757Y2354454D1*
X1588467Y2361140D1*
X1595152Y2366850D1*
X1602820Y2371522D1*
X1595152Y2376195D1*
X1588467Y2381905D1*
X1582757Y2388590D1*
X1578163Y2396086D1*
X1574799Y2404209D1*
X1572746Y2412758D1*
X1572056Y2421522D1*
X1572746Y2430287D1*
X1573433Y2433742D1*
X1563091Y2444016D1*
X1471538D1*
X1464992Y2439058D1*
X1459260Y2436137D1*
X1453141Y2434149D1*
X1446786Y2433142D1*
X1440353D1*
X1433998Y2434149D1*
X1431977Y2434719D1*
X1431969Y2415855D1*
X1438189Y2416328D1*
X1444603Y2415823D1*
X1450859Y2414321D1*
X1456803Y2411859D1*
X1462288Y2408498D1*
X1467180Y2404319D1*
X1471359Y2399427D1*
X1474720Y2393942D1*
X1477182Y2387998D1*
X1478684Y2381742D1*
X1479189Y2375328D1*
X1478684Y2368914D1*
X1477182Y2362658D1*
X1474720Y2356714D1*
X1471359Y2351229D1*
X1467180Y2346337D1*
X1462288Y2342158D1*
X1456803Y2338797D1*
X1449297Y2335894D1*
X1449291Y2262436D1*
X1456815Y2261389D1*
X1462934Y2259401D1*
X1468667Y2256481D1*
X1475137Y2251529D1*
X1580789Y2251522D1*
X1574864Y2504031D2*
X1572746Y2512758D1*
X1572056Y2521522D1*
X1572746Y2530287D1*
X1574799Y2538836D1*
X1578163Y2546958D1*
X1582757Y2554454D1*
X1588467Y2561140D1*
X1595152Y2566850D1*
X1602820Y2571522D1*
X1595152Y2576195D1*
X1588467Y2581905D1*
X1582757Y2588590D1*
X1578163Y2596086D1*
X1574799Y2604209D1*
X1572746Y2612758D1*
X1572056Y2621522D1*
X1572746Y2630287D1*
X1574799Y2638836D1*
X1578163Y2646958D1*
X1582757Y2654454D1*
X1588467Y2661140D1*
X1595152Y2666850D1*
X1602820Y2671522D1*
X1595152Y2676195D1*
X1588467Y2681905D1*
X1582757Y2688590D1*
X1578163Y2696086D1*
X1574799Y2704209D1*
X1572746Y2712758D1*
X1572056Y2721522D1*
X1572746Y2730287D1*
X1574799Y2738836D1*
X1578163Y2746958D1*
X1582757Y2754454D1*
X1588467Y2761140D1*
X1595152Y2766850D1*
X1602820Y2771522D1*
X1595152Y2776195D1*
X1588467Y2781905D1*
X1582757Y2788590D1*
X1578163Y2796086D1*
X1574799Y2804209D1*
X1572746Y2812758D1*
X1572056Y2821522D1*
X1572746Y2830287D1*
X1574141Y2836504D1*
X1318507Y2836516D1*
X1424781Y2730113D1*
X1428699Y2724250D1*
X1431140Y2717633D1*
X1431969Y2710630D1*
Y2513315D1*
X1437156Y2514511D1*
X1443570Y2515016D1*
X1449983Y2514511D1*
X1456239Y2513009D1*
X1462183Y2510547D1*
X1467669Y2507185D1*
X1471462Y2504023D1*
X1574850Y2504016D1*
X1624526Y582012D2*
X1652353D1*
Y575323D1*
X1689572Y612445D1*
X1695435Y616363D1*
X1702052Y618804D1*
X1709055Y619633D1*
X1768577D1*
X1774321Y626466D1*
X1780537Y631775D1*
X1787506Y636046D1*
X1795833Y639423D1*
X1637016Y639515D1*
X1630100Y640891D1*
X1625742Y642697D1*
X1624488Y641306D1*
Y581980D1*
X1540345Y477831D2*
X1540298Y499950D1*
X1535229Y496074D1*
X1528815Y493119D1*
X1527419Y480306D1*
Y431235D1*
X1540332Y431201D1*
X1540298Y477784D1*
X1533174Y494923D1*
X1528824Y493122D1*
X597300Y773482D2*
X666832D1*
X666850Y790794D1*
X597331Y790823D1*
X597323Y773509D1*
X726889Y773482D2*
X749185D1*
Y685151D1*
X761947Y692175D1*
X773997Y704225D1*
X758408Y704209D1*
Y802791D1*
X752916Y804897D1*
X750853Y806053D1*
X748941Y802878D1*
Y790823D1*
X726822D1*
X726850Y773462D1*
X710727Y902878D2*
X748941D1*
Y876852D1*
X756005Y876481D1*
X758325Y876019D1*
X758408Y883193D1*
X870463D1*
Y798185D1*
X903547Y798186D1*
X956914Y851570D1*
X960269Y857039D1*
X963431Y860832D1*
X963386Y1069909D1*
X907710Y1125512D1*
X796235D1*
X798004Y1119939D1*
X799010Y1113584D1*
Y1107151D1*
X798004Y1100796D1*
X796016Y1094677D1*
X792752Y1088433D1*
X869282Y1088442D1*
Y964576D1*
X736602D1*
X736469Y938722D1*
X735093Y931806D1*
X732141Y925401D1*
X727775Y919863D1*
X712151Y904240D1*
X1105948Y794085D2*
X1197629Y794036D1*
X1192417Y796236D1*
X1186553Y800154D1*
X1048603Y937973D1*
X1044237Y943511D1*
X1041285Y949916D1*
X1039909Y956833D1*
X1039764Y1034214D1*
X1023433Y1050545D1*
X1023438Y860848D1*
X1028397Y854362D1*
X1031317Y848630D1*
X1033305Y842511D1*
X1034312Y836156D1*
X1034391Y831746D1*
X1036871Y826829D1*
X1038641Y821382D1*
X1039537Y815725D1*
Y792281D1*
X1038641Y786624D1*
X1036871Y781176D1*
X1034271Y776073D1*
X1030904Y771440D1*
X989983Y730359D1*
X985627Y726639D1*
X980744Y723646D1*
X975452Y721454D1*
X969883Y720117D1*
X964173Y719668D1*
X870465Y719799D1*
X870463Y704209D1*
X849321D1*
X849248Y688606D1*
X848353Y682949D1*
X846583Y677502D1*
X843982Y672399D1*
X840616Y667765D1*
X797078Y624068D1*
X851828Y624072D1*
Y537402D1*
X854775Y531834D1*
X865364Y529584D1*
X881356D1*
Y495648D1*
X886662Y499968D1*
X892148Y503329D1*
X898091Y505791D1*
X904347Y507293D1*
X910761Y507798D1*
X917175Y507293D1*
X923431Y505791D1*
X929375Y503329D1*
X934860Y499968D1*
X939753Y495789D1*
X943931Y490897D1*
X947292Y485412D1*
X949754Y479468D1*
X951256Y473212D1*
X951761Y466798D1*
X951256Y460384D1*
X949754Y454128D1*
X947292Y448184D1*
X943931Y442699D1*
X939753Y437807D1*
X934860Y433628D1*
X931201Y431201D1*
X1308016Y431507D1*
X1303838Y436399D1*
X1300477Y441885D1*
X1298015Y447829D1*
X1296513Y454085D1*
X1296008Y460499D1*
X1296513Y466913D1*
X1298015Y473168D1*
X1300477Y479112D1*
X1303838Y484598D1*
X1307001Y488391D1*
X1306956Y707311D1*
X1306135Y708058D1*
X1272395D1*
X1272432Y682030D1*
X1175508D1*
X1175538Y618185D1*
X1182537Y617164D1*
X1188656Y615176D1*
X1194388Y612255D1*
X1199593Y608473D1*
X1204143Y603924D1*
X1207924Y598719D1*
X1210845Y592987D1*
X1212833Y586868D1*
X1213839Y580513D1*
Y574080D1*
X1212833Y567725D1*
X1210845Y561607D1*
X1207924Y555874D1*
X1204143Y550669D1*
X1199593Y546120D1*
X1194388Y542338D1*
X1188656Y539418D1*
X1182537Y537429D1*
X1176183Y536423D1*
X1169749D1*
X1163395Y537429D1*
X1157276Y539418D1*
X1151543Y542338D1*
X1146339Y546120D1*
X1141789Y550669D1*
X1138008Y555874D1*
X1135087Y561607D1*
X1133099Y567725D1*
X1132025Y575801D1*
X1121267Y587091D1*
X1117822Y593244D1*
X1115907Y600031D1*
X1115538Y604724D1*
Y682019D1*
X1093448Y682030D1*
Y794085D1*
X1105948D1*
X1272432Y792962D2*
Y768060D1*
X1320989Y767965D1*
X1327906Y766590D1*
X1334310Y763637D1*
X1339848Y759271D1*
X1358227Y740892D1*
X1359449Y753242D1*
X1319652Y792966D1*
X1272435D1*
X2238494Y673350D2*
X2247917D1*
X2247953Y702854D1*
X2151059Y702896D1*
Y728922D1*
X2149597Y728107D1*
Y703552D1*
X1991249D1*
X2021428Y673360D1*
X2145004Y673350D1*
Y647325D1*
X2151190Y648795D1*
Y673350D1*
X2238494D1*
X2324657Y561295D2*
X2308056D1*
X2308084Y527821D1*
X2317851Y521925D1*
X2324717Y516131D1*
X2324705Y561328D1*
X2248096Y561295D2*
X2151190D1*
Y587321D1*
X2145004Y585850D1*
Y561295D1*
X1966020D1*
Y643961D1*
X1766503Y843359D1*
X1721298Y843307D1*
X1618302Y740442D1*
X1614486Y737671D1*
X1621055Y730164D1*
X1651870Y699423D1*
X1835687Y699330D1*
X1842604Y697954D1*
X1849008Y695002D1*
X1854547Y690636D1*
X1896041Y649011D1*
X1899959Y643147D1*
X1902400Y636531D1*
X1903228Y629528D1*
X1903136Y556701D1*
X1901760Y549785D1*
X1898803Y543372D1*
X1909064Y541723D1*
X1963245D1*
Y450463D1*
X1982901Y450525D1*
X2018892Y486515D1*
X2021427Y493843D1*
X2026120Y503052D1*
X2032195Y511414D1*
X2039504Y518723D1*
X2047866Y524799D1*
X2057076Y529491D1*
X2066906Y532685D1*
X2077115Y534302D1*
X2087452D1*
X2097661Y532685D1*
X2107491Y529491D1*
X2116700Y524799D1*
X2125063Y518723D1*
X2132371Y511414D1*
X2138447Y503052D1*
X2143139Y493843D1*
X2146334Y484012D1*
X2147950Y473803D1*
Y463467D1*
X2146334Y453258D1*
X2143139Y443428D1*
X2138447Y434218D1*
X2136438Y431211D1*
X2224902Y431201D1*
X2220443Y438731D1*
X2216488Y448280D1*
X2214075Y458331D1*
X2213264Y468635D1*
X2214075Y478940D1*
X2216488Y488990D1*
X2220443Y498540D1*
X2225844Y507353D1*
X2232557Y515212D1*
X2240416Y521925D1*
X2248084Y526684D1*
Y561335D1*
X2238362Y814951D2*
X2250325D1*
X2250315Y838581D1*
X2153421Y838592D1*
Y864617D1*
X2146316Y863934D1*
Y839379D1*
X1967332D1*
Y865404D1*
X1899221Y865499D1*
X1892304Y866875D1*
X1885900Y869828D1*
X1880362Y874194D1*
X1811757Y942798D1*
X1811811Y935865D1*
X1958169Y789580D1*
X1970620D1*
X1970613Y815607D1*
X2149597D1*
Y788898D1*
X2151059Y790396D1*
Y814951D1*
X2238362D1*
X2240725Y950647D2*
X2251906D1*
X2251838Y983689D1*
X2237697Y997756D1*
X2119191D1*
X2119217Y961886D1*
X2042595Y961934D1*
X2042332Y951434D1*
X2146316D1*
Y924628D1*
X2153421Y926092D1*
Y950647D1*
X2240725D1*
X2311867D2*
X2324660D1*
X2324705Y1379785D1*
X2209714Y1379823D1*
X2214486Y1373522D1*
X2217407Y1367790D1*
X2219395Y1361671D1*
X2220401Y1355317D1*
Y1348883D1*
X2219395Y1342528D1*
X2217407Y1336410D1*
X2214486Y1330677D1*
X2210704Y1325472D1*
X2206155Y1320923D1*
X2200950Y1317141D1*
X2195218Y1314221D1*
X2189099Y1312233D1*
X2181123Y1311162D1*
X2191725Y1300048D1*
X2195171Y1293895D1*
X2197085Y1287108D1*
X2197454Y1282415D1*
Y1275237D1*
X2202412Y1268667D1*
X2205333Y1262934D1*
X2207321Y1256815D1*
X2208328Y1250461D1*
Y1244027D1*
X2207321Y1237673D1*
X2205333Y1231554D1*
X2202412Y1225822D1*
X2198631Y1220617D1*
X2194081Y1216067D1*
X2188877Y1212286D1*
X2183144Y1209365D1*
X2177025Y1207377D1*
X2170671Y1206370D1*
X2164237D1*
X2157883Y1207377D1*
X2151764Y1209365D1*
X2146032Y1212286D1*
X2140827Y1216067D1*
X2136277Y1220617D1*
X2132496Y1225822D1*
X2129575Y1231554D1*
X2127587Y1237673D1*
X2126580Y1244027D1*
Y1250461D1*
X2127587Y1256815D1*
X2129575Y1262934D1*
X2132496Y1268667D1*
X2135086Y1272360D1*
X2119206Y1288236D1*
X2119217Y1253224D1*
X2010867D1*
X2010906Y1093655D1*
X2119217Y1093626D1*
Y1057737D1*
X2252551Y1057664D1*
X2259467Y1056288D1*
X2265872Y1053335D1*
X2271410Y1048969D1*
X2304702Y1015547D1*
X2308620Y1009683D1*
X2311061Y1003066D1*
X2311890Y996054D1*
Y950604D1*
X1892595Y1059981D2*
Y1093626D1*
X1900944D1*
X1900853Y1171681D1*
X1875689Y1196772D1*
X1830425D1*
X1827215Y1190257D1*
X1823434Y1185052D1*
X1818885Y1180503D1*
X1813680Y1176722D1*
X1807947Y1173801D1*
X1801828Y1171813D1*
X1795474Y1170806D1*
X1789040D1*
X1782686Y1171813D1*
X1776567Y1173801D1*
X1770835Y1176722D1*
X1765630Y1180503D1*
X1761081Y1185052D1*
X1757299Y1190257D1*
X1754378Y1195990D1*
X1752390Y1202109D1*
X1751384Y1208463D1*
Y1214897D1*
X1752390Y1221251D1*
X1754378Y1227370D1*
X1757299Y1233102D1*
X1761081Y1238307D1*
X1765630Y1242856D1*
X1770835Y1246638D1*
X1776567Y1249559D1*
X1782686Y1251547D1*
X1789040Y1252553D1*
X1792220Y1252678D1*
X1798079Y1255303D1*
X1804995Y1256679D1*
X1890552Y1256678D1*
X1892595Y1265724D1*
Y1282863D1*
X1886330Y1278954D1*
X1880386Y1276492D1*
X1874130Y1274990D1*
X1867717Y1274486D1*
X1861303Y1274990D1*
X1855047Y1276492D1*
X1849103Y1278954D1*
X1843617Y1282316D1*
X1838725Y1286494D1*
X1834547Y1291386D1*
X1831185Y1296872D1*
X1828723Y1302816D1*
X1827221Y1309072D1*
X1826717Y1315486D1*
X1827221Y1321899D1*
X1828723Y1328155D1*
X1831185Y1334099D1*
X1834547Y1339585D1*
X1838725Y1344477D1*
X1843617Y1348655D1*
X1850827Y1352812D1*
X1780485Y1352756D1*
X1717909Y1290311D1*
X1712045Y1286393D1*
X1705429Y1283952D1*
X1698425Y1283123D1*
X1696228D1*
X1701524Y1277365D1*
X1704568Y1271930D1*
X1706259Y1265934D1*
X1706504Y1259710D1*
X1705288Y1253600D1*
X1702680Y1247942D1*
X1698824Y1243050D1*
X1684219Y1228446D1*
X1702593Y1228056D1*
X1709381Y1226142D1*
X1715534Y1222696D1*
X1719120Y1219632D1*
X1872999Y1065753D1*
X1881094Y1064670D1*
X1887212Y1062682D1*
X1892605Y1059952D1*
X1992605Y961886D2*
X1972098D1*
X1971101Y955849D1*
X1969744Y951441D1*
X2042332Y951434D1*
X2042605Y961886D1*
X1992595Y961934D1*
X1950906Y1253224D2*
X1902371D1*
X1907672Y1249584D1*
X1950882Y1206505D1*
X1950905Y1253195D1*
X1702928Y541066D2*
X1711155Y541723D1*
X1719304Y541082D1*
X1727252Y539174D1*
X1734803Y536046D1*
X1741773Y531775D1*
X1747988Y526466D1*
X1753714Y519626D1*
X1791431Y519685D1*
X1809351Y537604D1*
X1803006Y538183D1*
X1795058Y540091D1*
X1787506Y543220D1*
X1780537Y547490D1*
X1774321Y552799D1*
X1768596Y559639D1*
X1721430Y559580D1*
X1702889Y541040D1*
X1859064Y450481D2*
Y502435D1*
X1823289Y466820D1*
X1817426Y462902D1*
X1810809Y460461D1*
X1803806Y459632D1*
X1783542D1*
X1792815Y450473D1*
X1859075D1*
X1419514Y580306D2*
X1516258D1*
X1524079Y588159D1*
X1522030Y593236D1*
X1520528Y599492D1*
X1520024Y605906D1*
X1520528Y612319D1*
X1522030Y618575D1*
X1524492Y624519D1*
X1527854Y630005D1*
X1532032Y634897D1*
X1536924Y639075D1*
X1542410Y642437D1*
X1548354Y644899D1*
X1554610Y646401D1*
X1559051Y646828D1*
X1391306Y814488D1*
X1383054D1*
X1412314Y785100D1*
X1416232Y779237D1*
X1418672Y772620D1*
X1419501Y765617D1*
Y580314D1*
X1967332Y925365D2*
Y946019D1*
X1964403Y941321D1*
X1960225Y936429D1*
X1955333Y932250D1*
X1949847Y928889D1*
X1943903Y926427D1*
X1940077Y925408D1*
X1967346Y925407D1*
X1957861Y934243D1*
X1952656Y930462D1*
X1946924Y927541D1*
X1940077Y925408D1*
X1921662Y925553D1*
X1915544Y927541D1*
X1909811Y930462D1*
X1907208Y932201D1*
X1914075Y925407D1*
X1921662Y925553D1*
X1915544Y927541D1*
X1909811Y930462D1*
X1907208Y932201D1*
X1898015Y941394D1*
X1894702Y946806D1*
X1892240Y952750D1*
X1890738Y959006D1*
X1890234Y965420D1*
X1890738Y971834D1*
X1892595Y979122D1*
Y989669D1*
X1887212Y986924D1*
X1881094Y984936D1*
X1874739Y983930D1*
X1868305D1*
X1861951Y984936D1*
X1855832Y986924D1*
X1848479Y990928D1*
X1897971Y941437D1*
X1894702Y946806D1*
X1892240Y952750D1*
X1890738Y959006D1*
X1890234Y965420D1*
X1890738Y971834D1*
X1892593Y979045D1*
X1328735Y1376845D2*
X1319831Y1368404D1*
X1314648Y1362756D1*
X1307639Y1355747D1*
X1338260Y1325164D1*
X1338241Y1360028D1*
X1333283Y1366504D1*
X1330362Y1372236D1*
X1328787Y1376891D1*
X1319838Y1368409D1*
X1489545Y902928D2*
X1481297Y895143D1*
X1476112Y889497D1*
X1468896Y882280D1*
X1512400Y838819D1*
X1512481Y885687D1*
X1513857Y892604D1*
X1516809Y899008D1*
X1521050Y904495D1*
X1520998Y921893D1*
X1514748Y928143D1*
X1503568Y917415D1*
X1498384Y911767D1*
X1489545Y902928D1*
X1463727Y1052283D2*
X1480779Y1068873D1*
X1485962Y1074521D1*
X1503050Y1091144D1*
X1508240Y1096796D1*
X1501409Y1089852D1*
X1517073Y1105630D1*
X1525321Y1113415D1*
X1530510Y1119068D1*
X1523681Y1112122D1*
X1539343Y1127901D1*
X1547592Y1135686D1*
X1552782Y1141338D1*
X1545951Y1134394D1*
X1561615Y1150172D1*
X1569864Y1157957D1*
X1575054Y1163610D1*
X1578637Y1171695D1*
X1572774Y1175613D1*
X1517870Y1230516D1*
X1513952Y1236380D1*
X1511511Y1242997D1*
X1510682Y1250000D1*
Y1270035D1*
X1504572Y1266225D1*
X1498628Y1263763D1*
X1492372Y1262261D1*
X1485958Y1261756D1*
X1479544Y1262261D1*
X1473288Y1263763D1*
X1467344Y1266225D1*
X1461859Y1269586D1*
X1456967Y1273765D1*
X1452788Y1278657D1*
X1449427Y1284142D1*
X1446965Y1290086D1*
X1445463Y1296342D1*
X1444958Y1302756D1*
X1445463Y1309170D1*
X1446965Y1315426D1*
X1449427Y1321370D1*
X1452788Y1326855D1*
X1456967Y1331747D1*
X1461859Y1335926D1*
X1465775Y1338408D1*
X1460987Y1343655D1*
X1455339Y1348838D1*
X1438715Y1365925D1*
X1432026Y1372152D1*
X1416445Y1388197D1*
X1409755Y1394422D1*
X1408737Y1394340D1*
X1409241Y1387927D1*
X1408737Y1381513D1*
X1407235Y1375257D1*
X1404773Y1369313D1*
X1401411Y1363827D1*
X1398249Y1360034D1*
X1398242Y1147741D1*
X1405634Y1146691D1*
X1411753Y1144703D1*
X1417485Y1141782D1*
X1422690Y1138001D1*
X1427240Y1133452D1*
X1431021Y1128247D1*
X1433942Y1122514D1*
X1435930Y1116395D1*
X1436937Y1110041D1*
Y1103607D1*
X1435930Y1097253D1*
X1433942Y1091134D1*
X1432663Y1088359D1*
X1436435Y1081307D1*
X1438424Y1075188D1*
X1439430Y1068834D1*
Y1062400D1*
X1438424Y1056046D1*
X1436435Y1049927D1*
X1435440Y1047768D1*
X1447357Y1035846D1*
X1456867Y1045310D1*
X1680098Y1168410D2*
X1701524Y1146523D1*
X1704568Y1141087D1*
X1706259Y1135092D1*
X1706504Y1128867D1*
X1705288Y1122757D1*
X1702680Y1117100D1*
X1698824Y1112208D1*
X1690779Y1104163D1*
X1703391Y1091680D1*
X1737656Y1091587D1*
X1744572Y1090212D1*
X1750977Y1087259D1*
X1756515Y1082893D1*
X1837549Y1001859D1*
X1833643Y1009113D1*
X1831655Y1015232D1*
X1830581Y1023308D1*
X1685400Y1168425D1*
X1680078D1*
X869282Y1336799D2*
Y1276057D1*
X950385Y1275971D1*
X957302Y1274595D1*
X963706Y1271642D1*
X969245Y1267276D1*
X969970Y1266551D1*
X970092Y1332275D1*
X971468Y1339192D1*
X974421Y1345596D1*
X978787Y1351135D1*
X1007478Y1379826D1*
X912497Y1379823D1*
X912018Y1371276D1*
X910516Y1365021D1*
X908054Y1359077D1*
X904692Y1353591D1*
X900514Y1348699D1*
X895622Y1344521D1*
X890136Y1341159D1*
X884192Y1338697D1*
X877936Y1337195D1*
X871522Y1336690D1*
X869273Y1336779D1*
X800534Y1371862D2*
X807419Y1371907D1*
X810638Y1377607D1*
X812102Y1379464D1*
X793307Y1379823D1*
X431247D1*
X431201Y431239D1*
X442529Y439281D1*
Y529584D1*
X468261D1*
X471541Y536606D1*
X472056Y542332D1*
Y624072D1*
X499449D1*
X500902Y629861D1*
X503085Y635200D1*
X484456Y653957D1*
X480537Y659821D1*
X478097Y666438D1*
X477268Y673441D1*
Y964570D1*
X467857Y964568D1*
Y1088434D1*
X600146Y1088442D1*
X600276Y1149467D1*
X601652Y1156383D1*
X604604Y1162788D1*
X608970Y1168326D1*
X620949Y1179782D1*
X627102Y1183228D1*
X633890Y1185143D1*
X638583Y1185512D1*
X652694D1*
X647564Y1190564D1*
X643782Y1195769D1*
X640861Y1201502D1*
X638873Y1207620D1*
X637867Y1213975D1*
Y1220408D1*
X638873Y1226763D1*
X640861Y1232882D1*
X643782Y1238614D1*
X647564Y1243819D1*
X651365Y1247677D1*
X626467Y1248040D1*
X467857Y1248041D1*
Y1371907D1*
X800578D1*
X808178Y1373594D1*
X812096Y1379457D1*
X1751758Y939213D2*
X1746360Y936546D1*
X1738823Y934097D1*
X1730996Y932858D1*
X1723072D1*
X1714723Y934245D1*
X1709683Y931012D1*
X1703066Y928572D1*
X1696063Y927743D1*
X1681854D1*
X1682362Y922039D1*
X1681993Y902656D1*
X1680079Y895869D1*
X1676633Y889715D1*
X1673576Y886136D1*
X1642743Y855303D1*
X1643139Y850014D1*
X1689440Y896172D1*
X1695304Y900090D1*
X1701920Y902531D1*
X1708924Y903360D1*
X1759559D1*
X1756179Y907816D1*
X1753227Y914220D1*
X1751851Y921137D1*
X1751758Y939165D1*
X732940Y1210591D2*
X719095Y1224437D1*
X719740Y1217192D1*
X719235Y1210778D1*
X717733Y1204522D1*
X715271Y1198578D1*
X711910Y1193092D1*
X707732Y1188200D1*
X704726Y1185509D1*
X922573Y1185418D1*
X916765Y1192966D1*
X760638Y1193058D1*
X753722Y1194434D1*
X747317Y1197387D1*
X741779Y1201753D1*
X732940Y1210591D1*
X1547165Y1532022D2*
X1547258Y1672957D1*
X1548634Y1679874D1*
X1551586Y1686279D1*
X1555952Y1691817D1*
X1564903Y1700835D1*
X1558784Y1698847D1*
X1552429Y1697840D1*
X1545996D1*
X1539641Y1698847D1*
X1533523Y1700835D1*
X1527790Y1703756D1*
X1521320Y1708707D1*
X1463263Y1708806D1*
X1456346Y1710182D1*
X1449942Y1713135D1*
X1444404Y1717501D1*
X1431939Y1729965D1*
X1432021Y1604238D1*
X1432940Y1603393D1*
X1465707Y1603300D1*
X1472624Y1601924D1*
X1479028Y1598972D1*
X1484566Y1594606D1*
X1547165Y1532007D1*
X1252951Y1234479D2*
X1248871Y1230438D1*
X1243667Y1226656D1*
X1236011Y1223026D1*
X1242197Y1221539D1*
X1248141Y1219077D1*
X1253627Y1215716D1*
X1258519Y1211537D1*
X1262697Y1206645D1*
X1266059Y1201160D1*
X1268521Y1195216D1*
X1270023Y1188960D1*
X1270528Y1182546D1*
X1270023Y1176132D1*
X1269105Y1171946D1*
X1274998Y1171268D1*
X1274935Y1212498D1*
X1252941Y1234492D1*
X1967329Y946027D2*
X1964403Y941321D1*
X1960225Y936429D1*
X1955333Y932250D1*
X1949847Y928889D1*
X1943903Y926427D1*
X1940077Y925408D1*
X1921662Y925553D1*
X1915544Y927541D1*
X1909811Y930462D1*
X1907208Y932201D1*
X1898015Y941394D1*
X1894702Y946806D1*
X1892240Y952750D1*
X1890738Y959006D1*
X1890234Y965420D1*
X1890738Y971834D1*
X1892593Y979045D1*
X881676Y495688D2*
X886662Y499968D1*
X892148Y503329D1*
X898091Y505791D1*
X904347Y507293D1*
X910761Y507798D1*
X917175Y507293D1*
X923431Y505791D1*
X929375Y503329D1*
X934860Y499968D1*
X939753Y495789D1*
X943931Y490897D1*
X947292Y485412D1*
X949754Y479468D1*
X951256Y473212D1*
X951761Y466798D1*
X951256Y460384D1*
X949754Y454128D1*
X947292Y448184D1*
X943931Y442699D1*
X939753Y437807D1*
X934860Y433628D1*
X931053Y431207D1*
X1317244Y2435985D2*
X1317192Y2464397D1*
X1289337Y2492178D1*
X1277081D1*
X1279762Y2484506D1*
X1280769Y2478151D1*
Y2471718D1*
X1279762Y2465363D1*
X1277774Y2459244D1*
X1274853Y2453512D1*
X1273519Y2451515D1*
X1291593Y2451430D1*
X1298509Y2450054D1*
X1304914Y2447102D1*
X1310452Y2442736D1*
X1317254Y2435934D1*
D26*
X1128084Y2821522D3*
Y2721522D3*
Y2621522D3*
Y2521522D3*
Y2421522D3*
Y2321522D3*
Y2221522D3*
Y2121522D3*
Y2021522D3*
Y1921522D3*
Y1821522D3*
Y1721522D3*
Y1621522D3*
Y1521522D3*
X1628084D3*
Y1621522D3*
Y1721522D3*
Y1821522D3*
Y1921522D3*
Y2021522D3*
Y2121522D3*
Y2221522D3*
Y2321522D3*
Y2421522D3*
Y2521522D3*
Y2621522D3*
Y2721522D3*
Y2821522D3*
D30*
X1596325Y529922D3*
Y455118D3*
D31*
X622291Y717454D3*
X697094D3*
X622047Y846850D3*
X696850D3*
X1145538Y738058D3*
X1220341D3*
X2278084Y617323D3*
X2203281D3*
X2277953Y758924D3*
X2203150D3*
X2280315Y894619D3*
X2205512D3*
D32*
X1930906Y1027756D3*
X1980906D3*
X2030906D3*
X2080906D3*
Y1319094D3*
X2030906D3*
X1980906D3*
X1930906D3*
D33*
X1711155Y489633D3*
X1811155Y589633D3*
D34*
X1911155Y489633D3*
D30*
X814436Y831102D3*
Y756299D3*
X1471391Y453412D3*
Y528215D3*
D31*
X2018110Y617323D3*
X2092913D3*
X2022703Y759580D3*
X2097507D3*
X2019423Y895407D3*
X2094226D3*
D35*
X2279134Y468635D3*
X2082283D3*
D84*
X1330709Y1466404D3*
X1308437Y1444133D3*
X1286165Y1421862D3*
X1263895Y1399591D3*
X1241623Y1377320D3*
X1219353Y1355049D3*
X1197081Y1332778D3*
X1174811Y1310507D3*
X1152539Y1288236D3*
X1130268Y1265965D3*
X1107997Y1243693D3*
D87*
Y1149042D3*
X1130268Y1126770D3*
X1152539Y1104499D3*
X1174811Y1082228D3*
X1197081Y1059957D3*
X1219353Y1037686D3*
X1241623Y1015415D3*
X1263895Y993144D3*
X1286165Y970873D3*
X1308437Y948601D3*
X1330709Y926331D3*
D84*
X1425360D3*
X1447631Y948601D3*
X1469903Y970873D3*
X1492173Y993144D3*
X1514445Y1015415D3*
X1536715Y1037686D3*
X1558987Y1059957D3*
X1581257Y1082228D3*
X1603529Y1104499D3*
X1625801Y1126770D3*
X1648071Y1149042D3*
D87*
Y1243693D3*
X1625801Y1265965D3*
X1603529Y1288236D3*
X1581257Y1310507D3*
X1558987Y1332778D3*
X1536715Y1355049D3*
X1514445Y1377320D3*
X1492173Y1399591D3*
X1469903Y1421862D3*
X1447631Y1444133D3*
X1425360Y1466404D3*
D37*
X834908Y1309974D3*
X809318D3*
X783727D3*
X758136D3*
X732546D3*
X706955D3*
X681365D3*
X655774D3*
X630184D3*
X604593D3*
X579003D3*
X553412D3*
X527822D3*
X502231D3*
Y1026501D3*
X527822Y1026509D3*
X553412D3*
X579003D3*
X604593D3*
X630184D3*
X655774D3*
X681365D3*
X706955D3*
X732546D3*
X758136D3*
X783727D3*
X809318D3*
X834908D3*
D38*
X713123Y570997D3*
X687533D3*
X661942D3*
X636352D3*
X610761D3*
D39*
X783990Y558202D3*
X539895D3*
D40*
X823360Y465682D3*
X500525D3*
D41*
X695407D3*
X628478D3*
D42*
X1727034Y983202D3*
X1592685Y848853D3*
M02*
