G04 DipTrace 3.0.0.1*
G04 TopMask.gbr*
%MOIN*%
G04 #@! TF.FileFunction,Soldermask,Top*
G04 #@! TF.Part,Single*
%AMOUTLINE4*
4,1,4,
-0.037582,0.018096,
-0.018096,0.037582,
0.037582,-0.018096,
0.018096,-0.037582,
-0.037582,0.018096,
0*%
%AMOUTLINE7*
4,1,4,
-0.018096,-0.037582,
-0.037582,-0.018096,
0.018096,0.037582,
0.037582,0.018096,
-0.018096,-0.037582,
0*%
%ADD32R,0.023622X0.07874*%
%ADD50C,0.055874*%
%ADD52R,0.055118X0.082677*%
%ADD54R,0.070866X0.082677*%
%ADD56R,0.090551X0.086614*%
%ADD58R,0.023622X0.061024*%
%ADD61C,0.086614*%
%ADD63R,0.059055X0.059055*%
%ADD65C,0.059055*%
%ADD67R,0.031496X0.086614*%
%ADD68R,0.059055X0.066929*%
%ADD70R,0.066929X0.059055*%
%ADD76C,0.066929*%
%ADD85OUTLINE4*%
%ADD88OUTLINE7*%
%FSLAX26Y26*%
G04*
G70*
G90*
G75*
G01*
G04 TopMask*
%LPD*%
D76*
X1128084Y2821522D3*
Y2721522D3*
Y2621522D3*
Y2521522D3*
Y2421522D3*
Y2321522D3*
Y2221522D3*
Y2121522D3*
Y2021522D3*
Y1921522D3*
Y1821522D3*
Y1721522D3*
Y1621522D3*
Y1521522D3*
X1628084D3*
Y1621522D3*
Y1721522D3*
Y1821522D3*
Y1921522D3*
Y2021522D3*
Y2121522D3*
Y2221522D3*
Y2321522D3*
Y2421522D3*
Y2521522D3*
Y2621522D3*
Y2721522D3*
Y2821522D3*
D70*
X1596325Y529922D3*
Y455118D3*
D68*
X622291Y717454D3*
X697094D3*
X622047Y846850D3*
X696850D3*
X1145538Y738058D3*
X1220341D3*
X2278084Y617323D3*
X2203281D3*
X2277953Y758924D3*
X2203150D3*
X2280315Y894619D3*
X2205512D3*
D67*
X1930906Y1027756D3*
X1980906D3*
X2030906D3*
X2080906D3*
Y1319094D3*
X2030906D3*
X1980906D3*
X1930906D3*
D65*
X1711155Y489633D3*
X1811155Y589633D3*
D63*
X1911155Y489633D3*
D70*
X814436Y831102D3*
Y756299D3*
X1471391Y453412D3*
Y528215D3*
D68*
X2018110Y617323D3*
X2092913D3*
X2022703Y759580D3*
X2097507D3*
X2019423Y895407D3*
X2094226D3*
D61*
X2279134Y468635D3*
X2082283D3*
D85*
X1330709Y1466404D3*
X1308437Y1444133D3*
X1286165Y1421862D3*
X1263895Y1399591D3*
X1241623Y1377320D3*
X1219353Y1355049D3*
X1197081Y1332778D3*
X1174811Y1310507D3*
X1152539Y1288236D3*
X1130268Y1265965D3*
X1107997Y1243693D3*
D88*
Y1149042D3*
X1130268Y1126770D3*
X1152539Y1104499D3*
X1174811Y1082228D3*
X1197081Y1059957D3*
X1219353Y1037686D3*
X1241623Y1015415D3*
X1263895Y993144D3*
X1286165Y970873D3*
X1308437Y948601D3*
X1330709Y926331D3*
D85*
X1425360D3*
X1447631Y948601D3*
X1469903Y970873D3*
X1492173Y993144D3*
X1514445Y1015415D3*
X1536715Y1037686D3*
X1558987Y1059957D3*
X1581257Y1082228D3*
X1603529Y1104499D3*
X1625801Y1126770D3*
X1648071Y1149042D3*
D88*
Y1243693D3*
X1625801Y1265965D3*
X1603529Y1288236D3*
X1581257Y1310507D3*
X1558987Y1332778D3*
X1536715Y1355049D3*
X1514445Y1377320D3*
X1492173Y1399591D3*
X1469903Y1421862D3*
X1447631Y1444133D3*
X1425360Y1466404D3*
D32*
X834908Y1309974D3*
X809318D3*
X783727D3*
X758136D3*
X732546D3*
X706955D3*
X681365D3*
X655774D3*
X630184D3*
X604593D3*
X579003D3*
X553412D3*
X527822D3*
X502231D3*
Y1026501D3*
X527822Y1026509D3*
X553412D3*
X579003D3*
X604593D3*
X630184D3*
X655774D3*
X681365D3*
X706955D3*
X732546D3*
X758136D3*
X783727D3*
X809318D3*
X834908D3*
D58*
X713123Y570997D3*
X687533D3*
X661942D3*
X636352D3*
X610761D3*
D56*
X783990Y558202D3*
X539895D3*
D54*
X823360Y465682D3*
X500525D3*
D52*
X695407D3*
X628478D3*
D50*
X1727034Y983202D3*
X1592685Y848853D3*
M02*
