G04 DipTrace 3.0.0.1*
G04 TopPaste.gbr*
%MOIN*%
G04 #@! TF.FileFunction,Paste,Top*
G04 #@! TF.Part,Single*
%AMOUTLINE5*
4,1,4,
-0.026447,0.018096,
-0.018096,0.026447,
0.026447,-0.018096,
0.018096,-0.026447,
-0.026447,0.018096,
0*%
%AMOUTLINE8*
4,1,4,
-0.018096,-0.026447,
-0.026447,-0.018096,
0.018096,0.026447,
0.026447,0.018096,
-0.018096,-0.026447,
0*%
%ADD37R,0.015748X0.070866*%
%ADD53R,0.03937X0.066929*%
%ADD55R,0.055118X0.066929*%
%ADD57R,0.074803X0.070866*%
%ADD59R,0.007874X0.045276*%
%ADD60R,0.007874X0.062992*%
%ADD69R,0.043307X0.051181*%
%ADD71R,0.051181X0.043307*%
%ADD86OUTLINE5*%
%ADD89OUTLINE8*%
%FSLAX26Y26*%
G04*
G70*
G90*
G75*
G01*
G04 TopPaste*
%LPD*%
D71*
X1596325Y529922D3*
Y455118D3*
D69*
X622291Y717454D3*
X697094D3*
X622047Y846850D3*
X696850D3*
X1145538Y738058D3*
X1220341D3*
X2278084Y617323D3*
X2203281D3*
X2277953Y758924D3*
X2203150D3*
X2280315Y894619D3*
X2205512D3*
D37*
X1930906Y1027756D3*
X1980906D3*
X2030906D3*
X2080906D3*
Y1319094D3*
X2030906D3*
X1980906D3*
X1930906D3*
D71*
X814436Y831102D3*
Y756299D3*
X1471391Y453412D3*
Y528215D3*
D69*
X2018110Y617323D3*
X2092913D3*
X2022703Y759580D3*
X2097507D3*
X2019423Y895407D3*
X2094226D3*
D86*
X1330709Y1466404D3*
X1308437Y1444133D3*
X1286165Y1421862D3*
X1263895Y1399591D3*
X1241623Y1377320D3*
X1219353Y1355049D3*
X1197081Y1332778D3*
X1174811Y1310507D3*
X1152539Y1288236D3*
X1130268Y1265965D3*
X1107997Y1243693D3*
D89*
Y1149042D3*
X1130268Y1126770D3*
X1152539Y1104499D3*
X1174811Y1082228D3*
X1197081Y1059957D3*
X1219353Y1037686D3*
X1241623Y1015415D3*
X1263895Y993144D3*
X1286165Y970873D3*
X1308437Y948601D3*
X1330709Y926331D3*
D86*
X1425360D3*
X1447631Y948601D3*
X1469903Y970873D3*
X1492173Y993144D3*
X1514445Y1015415D3*
X1536715Y1037686D3*
X1558987Y1059957D3*
X1581257Y1082228D3*
X1603529Y1104499D3*
X1625801Y1126770D3*
X1648071Y1149042D3*
D89*
Y1243693D3*
X1625801Y1265965D3*
X1603529Y1288236D3*
X1581257Y1310507D3*
X1558987Y1332778D3*
X1536715Y1355049D3*
X1514445Y1377320D3*
X1492173Y1399591D3*
X1469903Y1421862D3*
X1447631Y1444133D3*
X1425360Y1466404D3*
D60*
X834908Y1309974D3*
X809318D3*
X783727D3*
X758136D3*
X732546D3*
X706955D3*
X681365D3*
X655774D3*
X630184D3*
X604593D3*
X579003D3*
X553412D3*
X527822D3*
X502231D3*
Y1026501D3*
X527822Y1026509D3*
X553412D3*
X579003D3*
X604593D3*
X630184D3*
X655774D3*
X681365D3*
X706955D3*
X732546D3*
X758136D3*
X783727D3*
X809318D3*
X834908D3*
D59*
X713123Y570997D3*
X687533D3*
X661942D3*
X636352D3*
X610761D3*
D57*
X783990Y558202D3*
X539895D3*
D55*
X823360Y465682D3*
X500525D3*
D53*
X695407D3*
X628478D3*
M02*
